version 1
nodes
  0 "ValveBiped.Bip01_Pelvis" -1
  1 "ValveBiped.Bip01_Spine" 0
  2 "ValveBiped.Bip01_Spine1" 1
  3 "ValveBiped.Bip01_Spine2" 2
  4 "ValveBiped.Bip01_Spine4" 3
  5 "ValveBiped.Bip01_R_Clavicle" 4
  6 "ValveBiped.Bip01_R_UpperArm" 5
  7 "ValveBiped.Bip01_R_Forearm" 6
  8 "ValveBiped.Bip01_L_Clavicle" 4
  9 "ValveBiped.Bip01_L_UpperArm" 8
  10 "ValveBiped.Bip01_L_Forearm" 9
  11 "ValveBiped.Bip01_L_Hand" 10
  12 "ValveBiped.Bip01_R_Hand" 7
  13 "ValveBiped.Bip01_R_Thigh" 0
  14 "ValveBiped.Bip01_R_Knee" 13
  15 "ValveBiped.Bip01_R_Quadricep" 13
  16 "ValveBiped.Bip01_Neck1" 4
  17 "ValveBiped.Bip01_Head1" 16
  18 "ValveBiped.Bip01_R_Calf" 13
  19 "ValveBiped.Bip01_R_Foot" 18
  20 "ValveBiped.Bip01_R_Toe0" 19
  21 "ValveBiped.Bip01_L_Thigh" 0
  22 "ValveBiped.Bip01_L_Quadricep" 21
  23 "ValveBiped.Bip01_L_Knee" 21
  24 "ValveBiped.Bip01_L_Finger4" 11
  25 "ValveBiped.Bip01_L_Finger41" 24
  26 "ValveBiped.Bip01_L_Finger42" 25
  27 "ValveBiped.Bip01_L_Finger3" 11
  28 "ValveBiped.Bip01_L_Finger31" 27
  29 "ValveBiped.Bip01_L_Finger32" 28
  30 "ValveBiped.Bip01_L_Finger2" 11
  31 "ValveBiped.Bip01_L_Finger21" 30
  32 "ValveBiped.Bip01_L_Finger22" 31
  33 "ValveBiped.Bip01_L_Finger1" 11
  34 "ValveBiped.Bip01_L_Finger11" 33
  35 "ValveBiped.Bip01_L_Finger12" 34
  36 "ValveBiped.Bip01_L_Finger0" 11
  37 "ValveBiped.Bip01_L_Finger01" 36
  38 "ValveBiped.Bip01_L_Finger02" 37
  39 "ValveBiped.Bip01_L_Calf" 21
  40 "ValveBiped.Bip01_L_Foot" 39
  41 "ValveBiped.Bip01_L_Toe0" 40
  42 "ValveBiped.Bip01_L_Ulna" 10
  43 "ValveBiped.Bip01_L_Wrist" 10
  44 "ValveBiped.Bip01_L_Elbow" 9
  45 "ValveBiped.Bip01_R_Finger4" 12
  46 "ValveBiped.Bip01_R_Finger41" 45
  47 "ValveBiped.Bip01_R_Finger42" 46
  48 "ValveBiped.Bip01_R_Finger3" 12
  49 "ValveBiped.Bip01_R_Finger31" 48
  50 "ValveBiped.Bip01_R_Finger32" 49
  51 "ValveBiped.Bip01_R_Finger2" 12
  52 "ValveBiped.Bip01_R_Finger21" 51
  53 "ValveBiped.Bip01_R_Finger22" 52
  54 "ValveBiped.Bip01_R_Finger1" 12
  55 "ValveBiped.Bip01_R_Finger11" 54
  56 "ValveBiped.Bip01_R_Finger12" 55
  57 "ValveBiped.Bip01_R_Finger0" 12
  58 "ValveBiped.Bip01_R_Finger01" 57
  59 "ValveBiped.Bip01_R_Finger02" 58
  60 "ValveBiped.Bip01_R_Wrist" 7
  61 "ValveBiped.Bip01_R_Ulna" 7
  62 "ValveBiped.Bip01_R_Elbow" 6
  63 "ValveBiped.attachment_bandage_legL" 39
  64 "ValveBiped.attachment_bandage_armL" 10
  65 "ValveBiped.attachment_armL_T" 10
  66 "ValveBiped.attachment_armR_T" 7
  67 "ValveBiped.L_weapon_bone" 11
  68 "ValveBiped.weapon_bone" 12
  69 "ValveBiped.weapon_bone_Clip" 68
  70 "ValveBiped.weapon_bone_extra" 68
  71 "ValveBiped.forward" 17
end
skeleton
time 0
  0 0.000000 0.542612 40.233574 1.570796 -0.000000 0.000000
  1 0.000000 4.246162 -0.018825 1.570796 0.083193 1.570796
  2 4.195629 0.000000 0.000000 -0.000000 -0.000000 -0.171967
  3 3.883152 0.000001 0.000000 -0.000000 0.000000 -0.015830
  4 5.985943 0.000002 -0.000000 -0.000000 0.000000 0.495179
  5 4.268658 1.531896 -1.575000 -0.952658 1.114834 -2.566258
  6 5.782729 0.000000 0.000001 1.443300 0.396163 -0.749684
  7 11.452759 0.000000 -0.000004 -0.000000 0.000000 -0.125707
  8 4.268658 1.531894 1.575000 0.877508 -1.114834 -2.566259
  9 5.782728 0.000004 0.000000 -1.384889 -0.344361 -0.770833
  10 11.452763 0.000001 0.000004 0.000000 -0.000000 -0.125707
  11 10.945534 -0.000006 -0.000031 1.373047 0.113574 0.124314
  12 10.945522 -0.000005 0.000015 -1.376663 -0.113578 0.124313
  13 -3.806942 0.000000 0.000000 -1.471122 0.058055 -1.622309
  14 19.253841 0.000000 -0.000000 0.000000 0.000000 0.025250
  15 6.694798 0.000000 0.000000 0.000000 0.000000 0.000000
  16 5.620499 0.000002 -0.000000 3.141590 0.000000 0.250601
  17 4.684906 0.000002 0.000000 -0.000000 -0.000001 0.463831
  18 19.263098 0.000000 0.000000 0.000000 0.000000 0.000000
  19 17.589096 -0.000000 -0.000000 0.088733 0.068757 -1.299215
  20 6.240662 0.000000 0.000000 -0.111841 0.023845 -0.336656
  21 3.806942 0.000000 0.000000 -1.670471 0.058055 -1.519283
  22 6.694798 0.000000 0.000000 -0.000000 -0.000000 -0.000000
  23 19.253841 0.000000 0.000000 0.000000 -0.000000 0.025253
  24 3.147139 0.005682 -1.551346 0.204944 0.143350 -0.226721
  25 1.585903 0.000002 0.000000 0.011404 0.016672 -0.599950
  26 0.849087 0.000000 0.000000 -0.054473 -0.175380 -0.302889
  27 3.471081 0.213266 -0.574066 0.197883 0.103919 -0.292835
  28 1.897533 0.000000 -0.000000 -0.051969 -0.088374 -0.532552
  29 1.014450 0.000001 -0.000000 0.002415 0.009757 -0.242679
  30 3.750084 0.114767 0.430057 0.187279 0.067956 -0.258153
  31 2.258190 0.000000 -0.000000 -0.042077 -0.053977 -0.662652
  32 1.210384 0.000000 0.000000 0.001897 0.012019 -0.156562
  33 3.868296 -0.166636 1.490141 0.180689 0.034228 -0.204094
  34 1.786068 0.000000 0.000000 0.051327 0.064037 -0.676424
  35 1.044437 -0.000001 0.000000 0.001277 0.038560 -0.033101
  36 1.121475 -1.351563 1.030998 1.693867 -0.344560 -0.124114
  37 1.928116 0.000000 -0.000002 0.000000 -0.188119 -0.185284
  38 1.285141 0.000001 -0.000002 0.000000 -0.040646 0.196333
  39 19.263102 -0.000000 0.000000 -0.000000 -0.000000 -0.000000
  40 17.589098 0.000000 0.000000 -0.077030 -0.068757 -1.299215
  41 6.240662 0.000000 0.000000 0.020295 -0.027709 -0.336371
  42 5.884350 0.000000 0.000008 -0.126310 -0.000000 0.000000
  43 11.768705 0.000001 0.000004 -0.238428 -0.000000 0.000000
  44 11.679195 0.000001 0.000011 0.000000 -0.000000 -0.161658
  45 3.147156 0.000067 1.551354 -0.201327 -0.143351 -0.226717
  46 1.585903 0.000000 0.000000 -0.011404 -0.016672 -0.599950
  47 0.849087 -0.000001 0.000000 0.054473 0.175380 -0.302890
  48 3.471100 0.211189 0.574833 -0.194266 -0.103921 -0.292831
  49 1.897533 0.000000 -0.000000 0.051969 0.088374 -0.532552
  50 1.014446 0.000002 0.000000 -0.002415 -0.009757 -0.242679
  51 3.750099 0.116323 -0.429641 -0.183663 -0.067958 -0.258150
  52 2.258183 0.000000 0.000000 0.042077 0.053977 -0.662652
  53 1.210392 0.000001 0.000000 -0.001897 -0.012019 -0.156562
  54 3.868322 -0.161243 -1.490733 -0.177072 -0.034229 -0.204090
  55 1.786068 0.000000 0.000000 -0.051327 -0.064037 -0.676424
  56 1.044445 0.000001 -0.000000 -0.001277 -0.038560 -0.033101
  57 1.121502 -1.347836 -1.035880 -1.690053 0.345004 -0.122821
  58 1.928122 0.000000 0.000000 -0.000000 0.188119 -0.185284
  59 1.285141 0.000001 0.000000 -0.000000 0.040646 0.196333
  60 11.768707 -0.000000 -0.000008 0.242666 0.000000 -0.000000
  61 5.884359 -0.000000 -0.000004 0.128617 0.000000 -0.000000
  62 11.679195 0.000000 0.000000 -0.000000 0.000000 -0.161657
  63 7.023270 -6.880002 4.339548 2.620672 -1.456011 -1.105365
  64 3.813801 -3.870656 0.998562 1.570796 -1.069638 0.199892
  65 0.000000 -0.000007 -0.000027 1.373047 0.113574 0.124314
  66 0.000000 -0.000007 -0.000034 1.373047 0.113574 0.124314
  67 3.349001 -1.370998 0.724999 1.977842 -0.088017 1.557794
  68 2.856895 -1.536200 -0.973800 -1.501147 -0.272558 -1.578261
  69 -0.000002 0.000000 10.000002 0.000000 0.000000 0.000000
  70 0.018896 0.665159 9.395882 0.000000 0.000000 0.000000
  71 2.000000 -3.000000 -0.000000 -1.570796 -0.000000 -1.326450
end
triangles
phy.bmp
  0 4.504663 -5.515356 44.228443 0.0 0.0 0.0 1 0
  0 6.492446 -1.016795 44.469872 0.0 0.0 0.0 1 0
  0 5.507123 -4.539501 36.293026 0.0 0.0 0.0 1 0
phy.bmp
  0 5.507123 -4.539501 36.293026 0.0 0.0 0.0 1 0
  0 0.000000 -6.210810 44.195488 0.0 0.0 0.0 1 0
  0 4.504663 -5.515356 44.228443 0.0 0.0 0.0 1 0
phy.bmp
  0 4.464957 4.323161 44.881176 0.0 0.0 0.0 1 0
  0 6.492446 -1.016795 44.469872 0.0 0.0 0.0 1 0
  0 4.504663 -5.515356 44.228443 0.0 0.0 0.0 1 0
phy.bmp
  0 4.504663 -5.515356 44.228443 0.0 0.0 0.0 1 0
  0 0.000000 -6.210810 44.195488 0.0 0.0 0.0 1 0
  0 4.464957 4.323161 44.881176 0.0 0.0 0.0 1 0
phy.bmp
  0 -4.464957 4.323161 44.881176 0.0 0.0 0.0 1 0
  0 0.000000 5.869774 44.992374 0.0 0.0 0.0 1 0
  0 -4.365643 -5.537179 44.230949 0.0 0.0 0.0 1 0
phy.bmp
  0 -4.365643 -5.537179 44.230949 0.0 0.0 0.0 1 0
  0 0.000000 5.869774 44.992374 0.0 0.0 0.0 1 0
  0 0.000000 -6.210810 44.195488 0.0 0.0 0.0 1 0
phy.bmp
  0 -6.492446 -1.016795 44.469872 0.0 0.0 0.0 1 0
  0 -4.365643 -5.537179 44.230949 0.0 0.0 0.0 1 0
  0 -5.507122 -4.539507 36.293022 0.0 0.0 0.0 1 0
phy.bmp
  0 -4.365643 -5.537179 44.230949 0.0 0.0 0.0 1 0
  0 0.000000 -6.210810 44.195488 0.0 0.0 0.0 1 0
  0 -5.507122 -4.539507 36.293022 0.0 0.0 0.0 1 0
phy.bmp
  0 -4.365643 -5.537179 44.230949 0.0 0.0 0.0 1 0
  0 -6.492446 -1.016795 44.469872 0.0 0.0 0.0 1 0
  0 -4.464957 4.323161 44.881176 0.0 0.0 0.0 1 0
phy.bmp
  0 5.507123 4.435345 36.293026 0.0 0.0 0.0 1 0
  0 7.452096 -0.175724 36.293026 0.0 0.0 0.0 1 0
  0 4.464957 4.323161 44.881176 0.0 0.0 0.0 1 0
phy.bmp
  0 4.464957 4.323161 44.881176 0.0 0.0 0.0 1 0
  0 7.452096 -0.175724 36.293026 0.0 0.0 0.0 1 0
  0 6.492446 -1.016795 44.469872 0.0 0.0 0.0 1 0
phy.bmp
  0 0.000000 5.869774 44.992374 0.0 0.0 0.0 1 0
  0 5.507123 4.435345 36.293026 0.0 0.0 0.0 1 0
  0 4.464957 4.323161 44.881176 0.0 0.0 0.0 1 0
phy.bmp
  0 0.000000 -6.210810 44.195488 0.0 0.0 0.0 1 0
  0 0.000000 5.869774 44.992374 0.0 0.0 0.0 1 0
  0 4.464957 4.323161 44.881176 0.0 0.0 0.0 1 0
phy.bmp
  0 -7.452094 -0.175740 36.293003 0.0 0.0 0.0 1 0
  0 -5.507123 4.435345 36.293026 0.0 0.0 0.0 1 0
  0 -4.464957 4.323161 44.881176 0.0 0.0 0.0 1 0
phy.bmp
  0 -7.452094 -0.175740 36.293003 0.0 0.0 0.0 1 0
  0 -4.464957 4.323161 44.881176 0.0 0.0 0.0 1 0
  0 -6.492446 -1.016795 44.469872 0.0 0.0 0.0 1 0
phy.bmp
  0 0.000000 5.869774 44.992374 0.0 0.0 0.0 1 0
  0 -4.464957 4.323161 44.881176 0.0 0.0 0.0 1 0
  0 -5.507123 4.435345 36.293026 0.0 0.0 0.0 1 0
phy.bmp
  0 -7.452094 -0.175740 36.293003 0.0 0.0 0.0 1 0
  0 0.000000 -5.307677 36.293026 0.0 0.0 0.0 1 0
  0 5.507123 -4.539501 36.293026 0.0 0.0 0.0 1 0
phy.bmp
  0 -7.452094 -0.175740 36.293003 0.0 0.0 0.0 1 0
  0 5.507123 -4.539501 36.293026 0.0 0.0 0.0 1 0
  0 7.452096 -0.175724 36.293026 0.0 0.0 0.0 1 0
phy.bmp
  0 6.492446 -1.016795 44.469872 0.0 0.0 0.0 1 0
  0 7.452096 -0.175724 36.293026 0.0 0.0 0.0 1 0
  0 5.507123 -4.539501 36.293026 0.0 0.0 0.0 1 0
phy.bmp
  0 0.000000 -5.307677 36.293026 0.0 0.0 0.0 1 0
  0 0.000000 -6.210810 44.195488 0.0 0.0 0.0 1 0
  0 5.507123 -4.539501 36.293026 0.0 0.0 0.0 1 0
phy.bmp
  0 -7.452094 -0.175740 36.293003 0.0 0.0 0.0 1 0
  0 -6.492446 -1.016795 44.469872 0.0 0.0 0.0 1 0
  0 -5.507122 -4.539507 36.293022 0.0 0.0 0.0 1 0
phy.bmp
  0 -5.507122 -4.539507 36.293022 0.0 0.0 0.0 1 0
  0 0.000000 -6.210810 44.195488 0.0 0.0 0.0 1 0
  0 0.000000 -5.307677 36.293026 0.0 0.0 0.0 1 0
phy.bmp
  0 -7.452094 -0.175740 36.293003 0.0 0.0 0.0 1 0
  0 -5.507122 -4.539507 36.293022 0.0 0.0 0.0 1 0
  0 0.000000 -5.307677 36.293026 0.0 0.0 0.0 1 0
phy.bmp
  0 -7.452094 -0.175740 36.293003 0.0 0.0 0.0 1 0
  0 5.507123 4.435345 36.293026 0.0 0.0 0.0 1 0
  0 0.000000 5.746254 36.293026 0.0 0.0 0.0 1 0
phy.bmp
  0 -7.452094 -0.175740 36.293003 0.0 0.0 0.0 1 0
  0 7.452096 -0.175724 36.293026 0.0 0.0 0.0 1 0
  0 5.507123 4.435345 36.293026 0.0 0.0 0.0 1 0
phy.bmp
  0 0.000000 5.869774 44.992374 0.0 0.0 0.0 1 0
  0 0.000000 5.746254 36.293026 0.0 0.0 0.0 1 0
  0 5.507123 4.435345 36.293026 0.0 0.0 0.0 1 0
phy.bmp
  0 0.000000 5.869774 44.992374 0.0 0.0 0.0 1 0
  0 -5.507123 4.435345 36.293026 0.0 0.0 0.0 1 0
  0 0.000000 5.746254 36.293026 0.0 0.0 0.0 1 0
phy.bmp
  0 -7.452094 -0.175740 36.293003 0.0 0.0 0.0 1 0
  0 0.000000 5.746254 36.293026 0.0 0.0 0.0 1 0
  0 -5.507123 4.435345 36.293026 0.0 0.0 0.0 1 0
phy.bmp
  2 -7.117717 -0.103397 44.046089 0.0 0.0 0.0 1 0
  2 -4.520697 4.302236 45.431377 0.0 0.0 0.0 1 0
  2 -4.962758 5.986038 53.563660 0.0 0.0 0.0 1 0
phy.bmp
  2 -0.000000 5.671705 45.611225 0.0 0.0 0.0 1 0
  2 -4.962758 5.986038 53.563660 0.0 0.0 0.0 1 0
  2 -4.520697 4.302236 45.431377 0.0 0.0 0.0 1 0
phy.bmp
  2 -0.000000 5.671705 45.611225 0.0 0.0 0.0 1 0
  2 -4.520697 4.302236 45.431377 0.0 0.0 0.0 1 0
  2 -7.117717 -0.103397 44.046089 0.0 0.0 0.0 1 0
phy.bmp
  2 -0.000000 5.671705 45.611225 0.0 0.0 0.0 1 0
  2 4.520697 4.302236 45.431377 0.0 0.0 0.0 1 0
  2 4.962758 5.986036 53.563660 0.0 0.0 0.0 1 0
phy.bmp
  2 -0.000000 5.671705 45.611225 0.0 0.0 0.0 1 0
  2 4.962758 5.986036 53.563660 0.0 0.0 0.0 1 0
  2 -0.000000 6.573922 53.080528 0.0 0.0 0.0 1 0
phy.bmp
  2 4.520697 4.302236 45.431377 0.0 0.0 0.0 1 0
  2 7.117716 -0.103396 44.046093 0.0 0.0 0.0 1 0
  2 4.962758 5.986036 53.563660 0.0 0.0 0.0 1 0
phy.bmp
  2 7.117716 -0.103396 44.046093 0.0 0.0 0.0 1 0
  2 7.391780 0.170911 55.092598 0.0 0.0 0.0 1 0
  2 4.962758 5.986036 53.563660 0.0 0.0 0.0 1 0
phy.bmp
  2 -4.962758 5.986038 53.563660 0.0 0.0 0.0 1 0
  2 -0.000000 6.573922 53.080528 0.0 0.0 0.0 1 0
  2 4.962758 5.986036 53.563660 0.0 0.0 0.0 1 0
phy.bmp
  2 4.962758 5.986036 53.563660 0.0 0.0 0.0 1 0
  2 7.391780 0.170911 55.092598 0.0 0.0 0.0 1 0
  2 -4.962758 5.986038 53.563660 0.0 0.0 0.0 1 0
phy.bmp
  2 4.863122 -3.837664 55.919296 0.0 0.0 0.0 1 0
  2 7.117716 -0.103396 44.046093 0.0 0.0 0.0 1 0
  2 4.520695 -3.983262 43.263763 0.0 0.0 0.0 1 0
phy.bmp
  2 4.520695 -3.983262 43.263763 0.0 0.0 0.0 1 0
  2 -0.000000 -6.012041 42.619762 0.0 0.0 0.0 1 0
  2 4.863122 -3.837664 55.919296 0.0 0.0 0.0 1 0
phy.bmp
  2 -0.000000 -6.012041 42.619762 0.0 0.0 0.0 1 0
  2 4.520695 -3.983262 43.263763 0.0 0.0 0.0 1 0
  2 7.117716 -0.103396 44.046093 0.0 0.0 0.0 1 0
phy.bmp
  2 -4.863125 -3.837680 55.919197 0.0 0.0 0.0 1 0
  2 -0.000000 -6.012041 42.619762 0.0 0.0 0.0 1 0
  2 -4.520695 -3.983261 43.263763 0.0 0.0 0.0 1 0
phy.bmp
  2 0.000002 -5.239316 56.266888 0.0 0.0 0.0 1 0
  2 -0.000000 -6.012041 42.619762 0.0 0.0 0.0 1 0
  2 -4.863125 -3.837680 55.919197 0.0 0.0 0.0 1 0
phy.bmp
  2 -7.117717 -0.103397 44.046089 0.0 0.0 0.0 1 0
  2 -4.863125 -3.837680 55.919197 0.0 0.0 0.0 1 0
  2 -4.520695 -3.983261 43.263763 0.0 0.0 0.0 1 0
phy.bmp
  2 -7.391781 0.170912 55.092598 0.0 0.0 0.0 1 0
  2 -4.863125 -3.837680 55.919197 0.0 0.0 0.0 1 0
  2 -7.117717 -0.103397 44.046089 0.0 0.0 0.0 1 0
phy.bmp
  2 -4.863125 -3.837680 55.919197 0.0 0.0 0.0 1 0
  2 -7.391781 0.170912 55.092598 0.0 0.0 0.0 1 0
  2 0.000002 -5.239316 56.266888 0.0 0.0 0.0 1 0
phy.bmp
  2 -0.000000 5.671705 45.611225 0.0 0.0 0.0 1 0
  2 7.117716 -0.103396 44.046093 0.0 0.0 0.0 1 0
  2 4.520697 4.302236 45.431377 0.0 0.0 0.0 1 0
phy.bmp
  2 -0.000000 5.671705 45.611225 0.0 0.0 0.0 1 0
  2 -0.000000 6.573922 53.080528 0.0 0.0 0.0 1 0
  2 -4.962758 5.986038 53.563660 0.0 0.0 0.0 1 0
phy.bmp
  2 -7.391781 0.170912 55.092598 0.0 0.0 0.0 1 0
  2 -7.117717 -0.103397 44.046089 0.0 0.0 0.0 1 0
  2 -4.962758 5.986038 53.563660 0.0 0.0 0.0 1 0
phy.bmp
  2 -4.962758 5.986038 53.563660 0.0 0.0 0.0 1 0
  2 7.391780 0.170911 55.092598 0.0 0.0 0.0 1 0
  2 -7.391781 0.170912 55.092598 0.0 0.0 0.0 1 0
phy.bmp
  2 -0.000000 -6.012041 42.619762 0.0 0.0 0.0 1 0
  2 7.117716 -0.103396 44.046093 0.0 0.0 0.0 1 0
  2 -0.000005 -0.167630 43.763714 0.0 0.0 0.0 1 0
phy.bmp
  2 -0.000000 -6.012041 42.619762 0.0 0.0 0.0 1 0
  2 -0.000005 -0.167630 43.763714 0.0 0.0 0.0 1 0
  2 -7.117717 -0.103397 44.046089 0.0 0.0 0.0 1 0
phy.bmp
  2 -0.000000 5.671705 45.611225 0.0 0.0 0.0 1 0
  2 -0.000005 -0.167630 43.763714 0.0 0.0 0.0 1 0
  2 7.117716 -0.103396 44.046093 0.0 0.0 0.0 1 0
phy.bmp
  2 -0.000000 5.671705 45.611225 0.0 0.0 0.0 1 0
  2 -7.117717 -0.103397 44.046089 0.0 0.0 0.0 1 0
  2 -0.000005 -0.167630 43.763714 0.0 0.0 0.0 1 0
phy.bmp
  2 4.863122 -3.837664 55.919296 0.0 0.0 0.0 1 0
  2 7.391780 0.170911 55.092598 0.0 0.0 0.0 1 0
  2 7.117716 -0.103396 44.046093 0.0 0.0 0.0 1 0
phy.bmp
  2 0.000002 -5.239316 56.266888 0.0 0.0 0.0 1 0
  2 7.391780 0.170911 55.092598 0.0 0.0 0.0 1 0
  2 4.863122 -3.837664 55.919296 0.0 0.0 0.0 1 0
phy.bmp
  2 4.863122 -3.837664 55.919296 0.0 0.0 0.0 1 0
  2 -0.000000 -6.012041 42.619762 0.0 0.0 0.0 1 0
  2 0.000002 -5.239316 56.266888 0.0 0.0 0.0 1 0
phy.bmp
  2 -0.000000 -6.012041 42.619762 0.0 0.0 0.0 1 0
  2 -7.117717 -0.103397 44.046089 0.0 0.0 0.0 1 0
  2 -4.520695 -3.983261 43.263763 0.0 0.0 0.0 1 0
phy.bmp
  2 -7.391781 0.170912 55.092598 0.0 0.0 0.0 1 0
  2 7.391780 0.170911 55.092598 0.0 0.0 0.0 1 0
  2 0.000002 -5.239316 56.266888 0.0 0.0 0.0 1 0
phy.bmp
  3 0.000002 -4.720620 55.566357 0.0 0.0 0.0 1 0
  3 -4.391840 -2.532096 55.744743 0.0 0.0 0.0 1 0
  3 -4.214598 -0.589014 60.788212 0.0 0.0 0.0 1 0
phy.bmp
  3 -4.214598 -0.589014 60.788212 0.0 0.0 0.0 1 0
  3 0.000004 -2.540248 60.788219 0.0 0.0 0.0 1 0
  3 0.000002 -4.720620 55.566357 0.0 0.0 0.0 1 0
phy.bmp
  3 0.000002 -4.720620 55.566357 0.0 0.0 0.0 1 0
  3 -4.718384 -3.602013 50.353123 0.0 0.0 0.0 1 0
  3 -4.391840 -2.532096 55.744743 0.0 0.0 0.0 1 0
phy.bmp
  3 0.000002 -4.720620 55.566357 0.0 0.0 0.0 1 0
  3 -0.000000 -5.401723 49.677124 0.0 0.0 0.0 1 0
  3 -4.718384 -3.602013 50.353123 0.0 0.0 0.0 1 0
phy.bmp
  3 4.391840 -2.532096 55.744751 0.0 0.0 0.0 1 0
  3 4.718384 -3.602018 50.353111 0.0 0.0 0.0 1 0
  3 0.000002 -4.720620 55.566357 0.0 0.0 0.0 1 0
phy.bmp
  3 4.718384 -3.602018 50.353111 0.0 0.0 0.0 1 0
  3 -0.000000 -5.401723 49.677124 0.0 0.0 0.0 1 0
  3 0.000002 -4.720620 55.566357 0.0 0.0 0.0 1 0
phy.bmp
  3 4.214460 -0.589096 60.788136 0.0 0.0 0.0 1 0
  3 4.391840 -2.532096 55.744751 0.0 0.0 0.0 1 0
  3 0.000002 -4.720620 55.566357 0.0 0.0 0.0 1 0
phy.bmp
  3 0.000002 -4.720620 55.566357 0.0 0.0 0.0 1 0
  3 0.000004 -2.540248 60.788219 0.0 0.0 0.0 1 0
  3 4.214460 -0.589096 60.788136 0.0 0.0 0.0 1 0
phy.bmp
  3 0.000001 8.352052 56.631927 0.0 0.0 0.0 1 0
  3 4.695934 7.289267 56.545300 0.0 0.0 0.0 1 0
  3 -0.000011 8.009344 61.381336 0.0 0.0 0.0 1 0
phy.bmp
  3 4.508915 6.644667 60.788193 0.0 0.0 0.0 1 0
  3 -0.000011 8.009344 61.381336 0.0 0.0 0.0 1 0
  3 4.695934 7.289267 56.545300 0.0 0.0 0.0 1 0
phy.bmp
  3 4.508915 6.644667 60.788193 0.0 0.0 0.0 1 0
  3 3.784937 5.261055 64.674507 0.0 0.0 0.0 1 0
  3 -0.000011 8.009344 61.381336 0.0 0.0 0.0 1 0
phy.bmp
  3 3.784937 5.261055 64.674507 0.0 0.0 0.0 1 0
  3 0.000003 5.141902 65.550003 0.0 0.0 0.0 1 0
  3 -0.000011 8.009344 61.381336 0.0 0.0 0.0 1 0
phy.bmp
  3 -3.784939 5.261058 64.674507 0.0 0.0 0.0 1 0
  3 -4.508916 6.644665 60.788189 0.0 0.0 0.0 1 0
  3 -0.000011 8.009344 61.381336 0.0 0.0 0.0 1 0
phy.bmp
  3 -0.000011 8.009344 61.381336 0.0 0.0 0.0 1 0
  3 0.000003 5.141902 65.550003 0.0 0.0 0.0 1 0
  3 -3.784939 5.261058 64.674507 0.0 0.0 0.0 1 0
phy.bmp
  3 -4.695931 7.289269 56.545315 0.0 0.0 0.0 1 0
  3 -0.000011 8.009344 61.381336 0.0 0.0 0.0 1 0
  3 -4.508916 6.644665 60.788189 0.0 0.0 0.0 1 0
phy.bmp
  3 -4.695931 7.289269 56.545315 0.0 0.0 0.0 1 0
  3 0.000001 8.352052 56.631927 0.0 0.0 0.0 1 0
  3 -0.000011 8.009344 61.381336 0.0 0.0 0.0 1 0
phy.bmp
  3 4.214460 -0.589096 60.788136 0.0 0.0 0.0 1 0
  3 6.310824 2.559047 63.560665 0.0 0.0 0.0 1 0
  3 4.391840 -2.532096 55.744751 0.0 0.0 0.0 1 0
phy.bmp
  3 3.784940 0.350445 63.374382 0.0 0.0 0.0 1 0
  3 6.310824 2.559047 63.560665 0.0 0.0 0.0 1 0
  3 4.214460 -0.589096 60.788136 0.0 0.0 0.0 1 0
phy.bmp
  3 4.214460 -0.589096 60.788136 0.0 0.0 0.0 1 0
  3 0.000004 -2.540248 60.788219 0.0 0.0 0.0 1 0
  3 3.784940 0.350445 63.374382 0.0 0.0 0.0 1 0
phy.bmp
  3 -6.310822 2.559034 63.560684 0.0 0.0 0.0 1 0
  3 -6.775848 2.548275 60.788200 0.0 0.0 0.0 1 0
  3 -4.508916 6.644665 60.788189 0.0 0.0 0.0 1 0
phy.bmp
  3 -4.695931 7.289269 56.545315 0.0 0.0 0.0 1 0
  3 -4.508916 6.644665 60.788189 0.0 0.0 0.0 1 0
  3 -6.775848 2.548275 60.788200 0.0 0.0 0.0 1 0
phy.bmp
  3 -6.310822 2.559034 63.560684 0.0 0.0 0.0 1 0
  3 -4.508916 6.644665 60.788189 0.0 0.0 0.0 1 0
  3 -3.784939 5.261058 64.674507 0.0 0.0 0.0 1 0
phy.bmp
  3 -4.214598 -0.589014 60.788212 0.0 0.0 0.0 1 0
  3 -3.784941 0.350446 63.374382 0.0 0.0 0.0 1 0
  3 0.000004 -2.540248 60.788219 0.0 0.0 0.0 1 0
phy.bmp
  3 -4.391840 -2.532096 55.744743 0.0 0.0 0.0 1 0
  3 -6.310822 2.559034 63.560684 0.0 0.0 0.0 1 0
  3 -4.214598 -0.589014 60.788212 0.0 0.0 0.0 1 0
phy.bmp
  3 -6.310822 2.559034 63.560684 0.0 0.0 0.0 1 0
  3 -3.784941 0.350446 63.374382 0.0 0.0 0.0 1 0
  3 -4.214598 -0.589014 60.788212 0.0 0.0 0.0 1 0
phy.bmp
  3 4.695934 7.289267 56.545300 0.0 0.0 0.0 1 0
  3 7.133603 0.980771 51.145546 0.0 0.0 0.0 1 0
  3 6.775856 2.548278 60.788185 0.0 0.0 0.0 1 0
phy.bmp
  3 4.695934 7.289267 56.545300 0.0 0.0 0.0 1 0
  3 4.842756 6.019155 54.254230 0.0 0.0 0.0 1 0
  3 7.133603 0.980771 51.145546 0.0 0.0 0.0 1 0
phy.bmp
  3 6.775856 2.548278 60.788185 0.0 0.0 0.0 1 0
  3 4.508915 6.644667 60.788193 0.0 0.0 0.0 1 0
  3 4.695934 7.289267 56.545300 0.0 0.0 0.0 1 0
phy.bmp
  3 4.842756 6.019155 54.254230 0.0 0.0 0.0 1 0
  3 4.695934 7.289267 56.545300 0.0 0.0 0.0 1 0
  3 0.000001 8.352052 56.631927 0.0 0.0 0.0 1 0
phy.bmp
  3 4.391840 -2.532096 55.744751 0.0 0.0 0.0 1 0
  3 6.310824 2.559047 63.560665 0.0 0.0 0.0 1 0
  3 4.718384 -3.602018 50.353111 0.0 0.0 0.0 1 0
phy.bmp
  3 -3.784939 5.261058 64.674507 0.0 0.0 0.0 1 0
  3 0.000003 5.141902 65.550003 0.0 0.0 0.0 1 0
  3 -6.310822 2.559034 63.560684 0.0 0.0 0.0 1 0
phy.bmp
  3 -4.718384 -3.602013 50.353123 0.0 0.0 0.0 1 0
  3 -6.310822 2.559034 63.560684 0.0 0.0 0.0 1 0
  3 -4.391840 -2.532096 55.744743 0.0 0.0 0.0 1 0
phy.bmp
  3 -4.718384 -3.602013 50.353123 0.0 0.0 0.0 1 0
  3 -6.775848 2.548275 60.788200 0.0 0.0 0.0 1 0
  3 -6.310822 2.559034 63.560684 0.0 0.0 0.0 1 0
phy.bmp
  3 -7.133603 0.980770 51.145546 0.0 0.0 0.0 1 0
  3 -6.775848 2.548275 60.788200 0.0 0.0 0.0 1 0
  3 -4.718384 -3.602013 50.353123 0.0 0.0 0.0 1 0
phy.bmp
  3 -7.133603 0.980770 51.145546 0.0 0.0 0.0 1 0
  3 -4.695931 7.289269 56.545315 0.0 0.0 0.0 1 0
  3 -6.775848 2.548275 60.788200 0.0 0.0 0.0 1 0
phy.bmp
  3 4.842756 6.019155 54.254230 0.0 0.0 0.0 1 0
  3 0.000001 8.352052 56.631927 0.0 0.0 0.0 1 0
  3 -0.000002 6.599019 54.095123 0.0 0.0 0.0 1 0
phy.bmp
  3 -0.000002 6.599019 54.095123 0.0 0.0 0.0 1 0
  3 0.000001 8.352052 56.631927 0.0 0.0 0.0 1 0
  3 -4.842756 6.019150 54.254227 0.0 0.0 0.0 1 0
phy.bmp
  3 -4.695931 7.289269 56.545315 0.0 0.0 0.0 1 0
  3 -4.842756 6.019150 54.254227 0.0 0.0 0.0 1 0
  3 0.000001 8.352052 56.631927 0.0 0.0 0.0 1 0
phy.bmp
  3 -7.133603 0.980770 51.145546 0.0 0.0 0.0 1 0
  3 -0.000002 6.599019 54.095123 0.0 0.0 0.0 1 0
  3 -4.842756 6.019150 54.254227 0.0 0.0 0.0 1 0
phy.bmp
  3 -7.133603 0.980770 51.145546 0.0 0.0 0.0 1 0
  3 -4.842756 6.019150 54.254227 0.0 0.0 0.0 1 0
  3 -4.695931 7.289269 56.545315 0.0 0.0 0.0 1 0
phy.bmp
  3 0.001208 1.770231 64.567604 0.0 0.0 0.0 1 0
  3 6.310824 2.559047 63.560665 0.0 0.0 0.0 1 0
  3 3.784940 0.350445 63.374382 0.0 0.0 0.0 1 0
phy.bmp
  3 0.001208 1.770231 64.567604 0.0 0.0 0.0 1 0
  3 0.000003 5.141902 65.550003 0.0 0.0 0.0 1 0
  3 6.310824 2.559047 63.560665 0.0 0.0 0.0 1 0
phy.bmp
  3 3.784940 0.350445 63.374382 0.0 0.0 0.0 1 0
  3 0.000005 -0.911365 63.676102 0.0 0.0 0.0 1 0
  3 0.001208 1.770231 64.567604 0.0 0.0 0.0 1 0
phy.bmp
  3 0.001208 1.770231 64.567604 0.0 0.0 0.0 1 0
  3 -3.784941 0.350446 63.374382 0.0 0.0 0.0 1 0
  3 -6.310822 2.559034 63.560684 0.0 0.0 0.0 1 0
phy.bmp
  3 -6.310822 2.559034 63.560684 0.0 0.0 0.0 1 0
  3 0.000003 5.141902 65.550003 0.0 0.0 0.0 1 0
  3 0.001208 1.770231 64.567604 0.0 0.0 0.0 1 0
phy.bmp
  3 0.000005 -0.911365 63.676102 0.0 0.0 0.0 1 0
  3 -3.784941 0.350446 63.374382 0.0 0.0 0.0 1 0
  3 0.001208 1.770231 64.567604 0.0 0.0 0.0 1 0
phy.bmp
  3 3.784940 0.350445 63.374382 0.0 0.0 0.0 1 0
  3 0.000004 -2.540248 60.788219 0.0 0.0 0.0 1 0
  3 0.000005 -0.911365 63.676102 0.0 0.0 0.0 1 0
phy.bmp
  3 6.775856 2.548278 60.788185 0.0 0.0 0.0 1 0
  3 7.133603 0.980771 51.145546 0.0 0.0 0.0 1 0
  3 4.718384 -3.602018 50.353111 0.0 0.0 0.0 1 0
phy.bmp
  3 4.718384 -3.602018 50.353111 0.0 0.0 0.0 1 0
  3 6.310824 2.559047 63.560665 0.0 0.0 0.0 1 0
  3 6.775856 2.548278 60.788185 0.0 0.0 0.0 1 0
phy.bmp
  3 6.775856 2.548278 60.788185 0.0 0.0 0.0 1 0
  3 6.310824 2.559047 63.560665 0.0 0.0 0.0 1 0
  3 4.508915 6.644667 60.788193 0.0 0.0 0.0 1 0
phy.bmp
  3 4.508915 6.644667 60.788193 0.0 0.0 0.0 1 0
  3 6.310824 2.559047 63.560665 0.0 0.0 0.0 1 0
  3 3.784937 5.261055 64.674507 0.0 0.0 0.0 1 0
phy.bmp
  3 6.310824 2.559047 63.560665 0.0 0.0 0.0 1 0
  3 0.000003 5.141902 65.550003 0.0 0.0 0.0 1 0
  3 3.784937 5.261055 64.674507 0.0 0.0 0.0 1 0
phy.bmp
  3 -0.000000 -5.401723 49.677124 0.0 0.0 0.0 1 0
  3 4.718384 -3.602018 50.353111 0.0 0.0 0.0 1 0
  3 7.133603 0.980771 51.145546 0.0 0.0 0.0 1 0
phy.bmp
  3 0.000000 1.104865 50.490150 0.0 0.0 0.0 1 0
  3 7.133603 0.980771 51.145546 0.0 0.0 0.0 1 0
  3 -0.000002 6.599019 54.095123 0.0 0.0 0.0 1 0
phy.bmp
  3 4.842756 6.019155 54.254230 0.0 0.0 0.0 1 0
  3 -0.000002 6.599019 54.095123 0.0 0.0 0.0 1 0
  3 7.133603 0.980771 51.145546 0.0 0.0 0.0 1 0
phy.bmp
  3 -7.133603 0.980770 51.145546 0.0 0.0 0.0 1 0
  3 0.000000 1.104865 50.490150 0.0 0.0 0.0 1 0
  3 -0.000002 6.599019 54.095123 0.0 0.0 0.0 1 0
phy.bmp
  3 0.000004 -2.540248 60.788219 0.0 0.0 0.0 1 0
  3 -3.784941 0.350446 63.374382 0.0 0.0 0.0 1 0
  3 0.000005 -0.911365 63.676102 0.0 0.0 0.0 1 0
phy.bmp
  3 -0.000000 -5.401723 49.677124 0.0 0.0 0.0 1 0
  3 -7.133603 0.980770 51.145546 0.0 0.0 0.0 1 0
  3 -4.718384 -3.602013 50.353123 0.0 0.0 0.0 1 0
phy.bmp
  3 -0.000000 -5.401723 49.677124 0.0 0.0 0.0 1 0
  3 7.133603 0.980771 51.145546 0.0 0.0 0.0 1 0
  3 0.000000 1.104865 50.490150 0.0 0.0 0.0 1 0
phy.bmp
  3 -0.000000 -5.401723 49.677124 0.0 0.0 0.0 1 0
  3 0.000000 1.104865 50.490150 0.0 0.0 0.0 1 0
  3 -7.133603 0.980770 51.145546 0.0 0.0 0.0 1 0
phy.bmp
  5 -2.743038 -0.825199 63.304447 0.0 0.0 0.0 1 0
  5 -6.503690 5.005912 61.417244 0.0 0.0 0.0 1 0
  5 -1.403921 3.178884 63.304447 0.0 0.0 0.0 1 0
phy.bmp
  5 -7.842808 1.001828 61.417244 0.0 0.0 0.0 1 0
  5 -6.503690 5.005912 61.417244 0.0 0.0 0.0 1 0
  5 -2.743038 -0.825199 63.304447 0.0 0.0 0.0 1 0
phy.bmp
  5 -0.615369 2.915162 60.887577 0.0 0.0 0.0 1 0
  5 -2.743038 -0.825199 63.304447 0.0 0.0 0.0 1 0
  5 -1.403921 3.178884 63.304447 0.0 0.0 0.0 1 0
phy.bmp
  5 -1.954486 -1.088920 60.887577 0.0 0.0 0.0 1 0
  5 -2.743038 -0.825199 63.304447 0.0 0.0 0.0 1 0
  5 -0.615369 2.915162 60.887577 0.0 0.0 0.0 1 0
phy.bmp
  5 -7.054255 0.738107 59.000374 0.0 0.0 0.0 1 0
  5 -7.842808 1.001828 61.417244 0.0 0.0 0.0 1 0
  5 -2.743038 -0.825199 63.304447 0.0 0.0 0.0 1 0
phy.bmp
  5 -1.954486 -1.088920 60.887577 0.0 0.0 0.0 1 0
  5 -7.054255 0.738107 59.000374 0.0 0.0 0.0 1 0
  5 -2.743038 -0.825199 63.304447 0.0 0.0 0.0 1 0
phy.bmp
  5 -1.403921 3.178884 63.304447 0.0 0.0 0.0 1 0
  5 -5.715137 4.742190 59.000374 0.0 0.0 0.0 1 0
  5 -0.615369 2.915162 60.887577 0.0 0.0 0.0 1 0
phy.bmp
  5 -1.403921 3.178884 63.304447 0.0 0.0 0.0 1 0
  5 -6.503690 5.005912 61.417244 0.0 0.0 0.0 1 0
  5 -5.715137 4.742190 59.000374 0.0 0.0 0.0 1 0
phy.bmp
  5 -7.842808 1.001828 61.417244 0.0 0.0 0.0 1 0
  5 -7.054255 0.738107 59.000374 0.0 0.0 0.0 1 0
  5 -5.715137 4.742190 59.000374 0.0 0.0 0.0 1 0
phy.bmp
  5 -5.715137 4.742190 59.000374 0.0 0.0 0.0 1 0
  5 -6.503690 5.005912 61.417244 0.0 0.0 0.0 1 0
  5 -7.842808 1.001828 61.417244 0.0 0.0 0.0 1 0
phy.bmp
  5 -7.054255 0.738107 59.000374 0.0 0.0 0.0 1 0
  5 -0.615369 2.915162 60.887577 0.0 0.0 0.0 1 0
  5 -5.715137 4.742190 59.000374 0.0 0.0 0.0 1 0
phy.bmp
  5 -1.954486 -1.088920 60.887577 0.0 0.0 0.0 1 0
  5 -0.615369 2.915162 60.887577 0.0 0.0 0.0 1 0
  5 -7.054255 0.738107 59.000374 0.0 0.0 0.0 1 0
phy.bmp
  8 5.715138 4.742191 59.000378 0.0 0.0 0.0 1 0
  8 1.403923 3.178884 63.304447 0.0 0.0 0.0 1 0
  8 0.615371 2.915163 60.887577 0.0 0.0 0.0 1 0
phy.bmp
  8 6.503691 5.005912 61.417248 0.0 0.0 0.0 1 0
  8 1.403923 3.178884 63.304447 0.0 0.0 0.0 1 0
  8 5.715138 4.742191 59.000378 0.0 0.0 0.0 1 0
phy.bmp
  8 0.615371 2.915163 60.887577 0.0 0.0 0.0 1 0
  8 1.403923 3.178884 63.304447 0.0 0.0 0.0 1 0
  8 2.743041 -0.825197 63.304447 0.0 0.0 0.0 1 0
phy.bmp
  8 1.403923 3.178884 63.304447 0.0 0.0 0.0 1 0
  8 7.842810 1.001829 61.417244 0.0 0.0 0.0 1 0
  8 2.743041 -0.825197 63.304447 0.0 0.0 0.0 1 0
phy.bmp
  8 1.403923 3.178884 63.304447 0.0 0.0 0.0 1 0
  8 6.503691 5.005912 61.417248 0.0 0.0 0.0 1 0
  8 7.842810 1.001829 61.417244 0.0 0.0 0.0 1 0
phy.bmp
  8 1.954489 -1.088918 60.887577 0.0 0.0 0.0 1 0
  8 0.615371 2.915163 60.887577 0.0 0.0 0.0 1 0
  8 2.743041 -0.825197 63.304447 0.0 0.0 0.0 1 0
phy.bmp
  8 7.842810 1.001829 61.417244 0.0 0.0 0.0 1 0
  8 1.954489 -1.088918 60.887577 0.0 0.0 0.0 1 0
  8 2.743041 -0.825197 63.304447 0.0 0.0 0.0 1 0
phy.bmp
  8 5.715138 4.742191 59.000378 0.0 0.0 0.0 1 0
  8 7.054257 0.738108 59.000374 0.0 0.0 0.0 1 0
  8 7.842810 1.001829 61.417244 0.0 0.0 0.0 1 0
phy.bmp
  8 7.842810 1.001829 61.417244 0.0 0.0 0.0 1 0
  8 6.503691 5.005912 61.417248 0.0 0.0 0.0 1 0
  8 5.715138 4.742191 59.000378 0.0 0.0 0.0 1 0
phy.bmp
  8 7.054257 0.738108 59.000374 0.0 0.0 0.0 1 0
  8 1.954489 -1.088918 60.887577 0.0 0.0 0.0 1 0
  8 7.842810 1.001829 61.417244 0.0 0.0 0.0 1 0
phy.bmp
  8 1.954489 -1.088918 60.887577 0.0 0.0 0.0 1 0
  8 5.715138 4.742191 59.000378 0.0 0.0 0.0 1 0
  8 0.615371 2.915163 60.887577 0.0 0.0 0.0 1 0
phy.bmp
  8 1.954489 -1.088918 60.887577 0.0 0.0 0.0 1 0
  8 7.054257 0.738108 59.000374 0.0 0.0 0.0 1 0
  8 5.715138 4.742191 59.000378 0.0 0.0 0.0 1 0
phy.bmp
  9 12.045815 4.876394 50.342381 0.0 0.0 0.0 1 0
  9 9.059132 5.288805 62.373264 0.0 0.0 0.0 1 0
  9 6.697278 5.293053 55.829597 0.0 0.0 0.0 1 0
phy.bmp
  9 13.398624 4.330089 51.200024 0.0 0.0 0.0 1 0
  9 9.059132 5.288805 62.373264 0.0 0.0 0.0 1 0
  9 12.045815 4.876394 50.342381 0.0 0.0 0.0 1 0
phy.bmp
  9 6.697278 5.293053 55.829597 0.0 0.0 0.0 1 0
  9 10.678688 4.116006 49.657574 0.0 0.0 0.0 1 0
  9 12.045815 4.876394 50.342381 0.0 0.0 0.0 1 0
phy.bmp
  9 10.253460 1.989337 49.706547 0.0 0.0 0.0 1 0
  9 13.398624 4.330089 51.200024 0.0 0.0 0.0 1 0
  9 12.045815 4.876394 50.342381 0.0 0.0 0.0 1 0
phy.bmp
  9 12.045815 4.876394 50.342381 0.0 0.0 0.0 1 0
  9 10.678688 4.116006 49.657574 0.0 0.0 0.0 1 0
  9 10.253460 1.989337 49.706547 0.0 0.0 0.0 1 0
phy.bmp
  9 13.398823 0.155015 51.778809 0.0 0.0 0.0 1 0
  9 13.398624 4.330089 51.200024 0.0 0.0 0.0 1 0
  9 12.045396 -0.604316 51.101768 0.0 0.0 0.0 1 0
phy.bmp
  9 12.045396 -0.604316 51.101768 0.0 0.0 0.0 1 0
  9 13.398624 4.330089 51.200024 0.0 0.0 0.0 1 0
  9 10.253460 1.989337 49.706547 0.0 0.0 0.0 1 0
phy.bmp
  9 10.253460 1.989337 49.706547 0.0 0.0 0.0 1 0
  9 10.679089 -0.058699 50.236420 0.0 0.0 0.0 1 0
  9 12.045396 -0.604316 51.101768 0.0 0.0 0.0 1 0
phy.bmp
  9 9.059128 -0.400547 62.373268 0.0 0.0 0.0 1 0
  9 13.398823 0.155015 51.778809 0.0 0.0 0.0 1 0
  9 12.045396 -0.604316 51.101768 0.0 0.0 0.0 1 0
phy.bmp
  9 6.701842 -0.400542 55.821735 0.0 0.0 0.0 1 0
  9 12.045396 -0.604316 51.101768 0.0 0.0 0.0 1 0
  9 10.679089 -0.058699 50.236420 0.0 0.0 0.0 1 0
phy.bmp
  9 6.701842 -0.400542 55.821735 0.0 0.0 0.0 1 0
  9 9.059128 -0.400547 62.373268 0.0 0.0 0.0 1 0
  9 12.045396 -0.604316 51.101768 0.0 0.0 0.0 1 0
phy.bmp
  9 13.398823 0.155015 51.778809 0.0 0.0 0.0 1 0
  9 13.823998 2.270388 51.731369 0.0 0.0 0.0 1 0
  9 13.398624 4.330089 51.200024 0.0 0.0 0.0 1 0
phy.bmp
  9 9.059128 -0.400547 62.373268 0.0 0.0 0.0 1 0
  9 13.823998 2.270388 51.731369 0.0 0.0 0.0 1 0
  9 13.398823 0.155015 51.778809 0.0 0.0 0.0 1 0
phy.bmp
  9 6.701842 -0.400542 55.821735 0.0 0.0 0.0 1 0
  9 10.253460 1.989337 49.706547 0.0 0.0 0.0 1 0
  9 6.697278 5.293053 55.829597 0.0 0.0 0.0 1 0
phy.bmp
  9 10.678688 4.116006 49.657574 0.0 0.0 0.0 1 0
  9 6.697278 5.293053 55.829597 0.0 0.0 0.0 1 0
  9 10.253460 1.989337 49.706547 0.0 0.0 0.0 1 0
phy.bmp
  9 6.701842 -0.400542 55.821735 0.0 0.0 0.0 1 0
  9 10.679089 -0.058699 50.236420 0.0 0.0 0.0 1 0
  9 10.253460 1.989337 49.706547 0.0 0.0 0.0 1 0
phy.bmp
  9 6.701842 -0.400542 55.821735 0.0 0.0 0.0 1 0
  9 6.697278 5.293053 55.829597 0.0 0.0 0.0 1 0
  9 9.059128 -0.400547 62.373268 0.0 0.0 0.0 1 0
phy.bmp
  9 9.059132 5.288805 62.373264 0.0 0.0 0.0 1 0
  9 9.059128 -0.400547 62.373268 0.0 0.0 0.0 1 0
  9 6.697278 5.293053 55.829597 0.0 0.0 0.0 1 0
phy.bmp
  9 13.823998 2.270388 51.731369 0.0 0.0 0.0 1 0
  9 9.059132 5.288805 62.373264 0.0 0.0 0.0 1 0
  9 13.398624 4.330089 51.200024 0.0 0.0 0.0 1 0
phy.bmp
  9 9.059128 -0.400547 62.373268 0.0 0.0 0.0 1 0
  9 9.059132 5.288805 62.373264 0.0 0.0 0.0 1 0
  9 13.823998 2.270388 51.731369 0.0 0.0 0.0 1 0
phy.bmp
  10 18.526648 -1.283307 41.945526 0.0 0.0 0.0 1 0
  10 18.526638 1.422193 41.210598 0.0 0.0 0.0 1 0
  10 17.300831 1.678840 40.432167 0.0 0.0 0.0 1 0
phy.bmp
  10 17.300831 1.678840 40.432167 0.0 0.0 0.0 1 0
  10 16.078474 1.064116 39.892433 0.0 0.0 0.0 1 0
  10 18.526648 -1.283307 41.945526 0.0 0.0 0.0 1 0
phy.bmp
  10 13.769557 0.482511 51.355946 0.0 0.0 0.0 1 0
  10 14.314028 2.256917 51.256302 0.0 0.0 0.0 1 0
  10 18.526648 -1.283307 41.945526 0.0 0.0 0.0 1 0
phy.bmp
  10 18.526648 -1.283307 41.945526 0.0 0.0 0.0 1 0
  10 14.314028 2.256917 51.256302 0.0 0.0 0.0 1 0
  10 18.921114 0.149624 41.784367 0.0 0.0 0.0 1 0
phy.bmp
  10 12.265706 -0.314752 50.679504 0.0 0.0 0.0 1 0
  10 13.769557 0.482511 51.355946 0.0 0.0 0.0 1 0
  10 18.526648 -1.283307 41.945526 0.0 0.0 0.0 1 0
phy.bmp
  10 17.302059 -1.898298 41.404613 0.0 0.0 0.0 1 0
  10 12.265706 -0.314752 50.679504 0.0 0.0 0.0 1 0
  10 18.526648 -1.283307 41.945526 0.0 0.0 0.0 1 0
phy.bmp
  10 18.526648 -1.283307 41.945526 0.0 0.0 0.0 1 0
  10 16.078474 1.064116 39.892433 0.0 0.0 0.0 1 0
  10 15.683992 -0.323850 40.041401 0.0 0.0 0.0 1 0
phy.bmp
  10 15.683992 -0.323850 40.041401 0.0 0.0 0.0 1 0
  10 16.078472 -1.641378 40.627384 0.0 0.0 0.0 1 0
  10 18.526648 -1.283307 41.945526 0.0 0.0 0.0 1 0
phy.bmp
  10 18.526648 -1.283307 41.945526 0.0 0.0 0.0 1 0
  10 18.921114 0.149624 41.784367 0.0 0.0 0.0 1 0
  10 18.526638 1.422193 41.210598 0.0 0.0 0.0 1 0
phy.bmp
  10 16.078472 -1.641378 40.627384 0.0 0.0 0.0 1 0
  10 17.302059 -1.898298 41.404613 0.0 0.0 0.0 1 0
  10 18.526648 -1.283307 41.945526 0.0 0.0 0.0 1 0
phy.bmp
  10 10.218384 1.740714 49.030235 0.0 0.0 0.0 1 0
  10 12.263863 4.254471 49.618832 0.0 0.0 0.0 1 0
  10 13.769557 3.836650 50.578110 0.0 0.0 0.0 1 0
phy.bmp
  10 14.314028 2.256917 51.256302 0.0 0.0 0.0 1 0
  10 10.218384 1.740714 49.030235 0.0 0.0 0.0 1 0
  10 13.769557 3.836650 50.578110 0.0 0.0 0.0 1 0
phy.bmp
  10 13.769557 3.836650 50.578110 0.0 0.0 0.0 1 0
  10 12.263863 4.254471 49.618832 0.0 0.0 0.0 1 0
  10 18.526638 1.422193 41.210598 0.0 0.0 0.0 1 0
phy.bmp
  10 18.526638 1.422193 41.210598 0.0 0.0 0.0 1 0
  10 14.314028 2.256917 51.256302 0.0 0.0 0.0 1 0
  10 13.769557 3.836650 50.578110 0.0 0.0 0.0 1 0
phy.bmp
  10 18.526638 1.422193 41.210598 0.0 0.0 0.0 1 0
  10 12.263863 4.254471 49.618832 0.0 0.0 0.0 1 0
  10 17.300831 1.678840 40.432167 0.0 0.0 0.0 1 0
phy.bmp
  10 12.263863 4.254471 49.618832 0.0 0.0 0.0 1 0
  10 16.078474 1.064116 39.892433 0.0 0.0 0.0 1 0
  10 17.300831 1.678840 40.432167 0.0 0.0 0.0 1 0
phy.bmp
  10 12.265706 -0.314752 50.679504 0.0 0.0 0.0 1 0
  10 16.078472 -1.641378 40.627384 0.0 0.0 0.0 1 0
  10 10.762863 0.103538 49.721748 0.0 0.0 0.0 1 0
phy.bmp
  10 10.218384 1.740714 49.030235 0.0 0.0 0.0 1 0
  10 10.762863 0.103538 49.721748 0.0 0.0 0.0 1 0
  10 16.078472 -1.641378 40.627384 0.0 0.0 0.0 1 0
phy.bmp
  10 10.218384 1.740714 49.030235 0.0 0.0 0.0 1 0
  10 12.265706 -0.314752 50.679504 0.0 0.0 0.0 1 0
  10 10.762863 0.103538 49.721748 0.0 0.0 0.0 1 0
phy.bmp
  10 10.218384 1.740714 49.030235 0.0 0.0 0.0 1 0
  10 16.078472 -1.641378 40.627384 0.0 0.0 0.0 1 0
  10 15.683992 -0.323850 40.041401 0.0 0.0 0.0 1 0
phy.bmp
  10 16.078474 1.064116 39.892433 0.0 0.0 0.0 1 0
  10 10.218384 1.740714 49.030235 0.0 0.0 0.0 1 0
  10 15.683992 -0.323850 40.041401 0.0 0.0 0.0 1 0
phy.bmp
  10 10.218384 1.740714 49.030235 0.0 0.0 0.0 1 0
  10 13.769557 0.482511 51.355946 0.0 0.0 0.0 1 0
  10 12.265706 -0.314752 50.679504 0.0 0.0 0.0 1 0
phy.bmp
  10 14.314028 2.256917 51.256302 0.0 0.0 0.0 1 0
  10 13.769557 0.482511 51.355946 0.0 0.0 0.0 1 0
  10 10.218384 1.740714 49.030235 0.0 0.0 0.0 1 0
phy.bmp
  10 18.921114 0.149624 41.784367 0.0 0.0 0.0 1 0
  10 14.314028 2.256917 51.256302 0.0 0.0 0.0 1 0
  10 18.526638 1.422193 41.210598 0.0 0.0 0.0 1 0
phy.bmp
  10 10.218384 1.740714 49.030235 0.0 0.0 0.0 1 0
  10 10.762863 3.457678 48.943916 0.0 0.0 0.0 1 0
  10 12.263863 4.254471 49.618832 0.0 0.0 0.0 1 0
phy.bmp
  10 10.762863 3.457678 48.943916 0.0 0.0 0.0 1 0
  10 16.078474 1.064116 39.892433 0.0 0.0 0.0 1 0
  10 12.263863 4.254471 49.618832 0.0 0.0 0.0 1 0
phy.bmp
  10 16.078474 1.064116 39.892433 0.0 0.0 0.0 1 0
  10 10.762863 3.457678 48.943916 0.0 0.0 0.0 1 0
  10 10.218384 1.740714 49.030235 0.0 0.0 0.0 1 0
phy.bmp
  10 17.302059 -1.898298 41.404613 0.0 0.0 0.0 1 0
  10 16.078472 -1.641378 40.627384 0.0 0.0 0.0 1 0
  10 12.265706 -0.314752 50.679504 0.0 0.0 0.0 1 0
phy.bmp
  11 16.086727 -2.236539 40.007782 0.0 0.0 0.0 1 0
  11 17.488770 -0.186371 40.359871 0.0 0.0 0.0 1 0
  11 19.089437 -2.103374 40.972813 0.0 0.0 0.0 1 0
phy.bmp
  11 16.086727 -2.236539 40.007782 0.0 0.0 0.0 1 0
  11 16.086727 1.527560 39.488369 0.0 0.0 0.0 1 0
  11 17.488770 -0.186371 40.359871 0.0 0.0 0.0 1 0
phy.bmp
  11 19.089437 1.660725 40.453403 0.0 0.0 0.0 1 0
  11 19.089437 -2.103374 40.972813 0.0 0.0 0.0 1 0
  11 17.488770 -0.186371 40.359871 0.0 0.0 0.0 1 0
phy.bmp
  11 19.089437 1.660725 40.453403 0.0 0.0 0.0 1 0
  11 17.488770 -0.186371 40.359871 0.0 0.0 0.0 1 0
  11 16.086727 1.527560 39.488369 0.0 0.0 0.0 1 0
phy.bmp
  11 19.089437 -2.103374 40.972813 0.0 0.0 0.0 1 0
  11 19.980906 -3.315617 34.174461 0.0 0.0 0.0 1 0
  11 17.559759 -3.314573 34.181995 0.0 0.0 0.0 1 0
phy.bmp
  11 17.559759 -3.314573 34.181995 0.0 0.0 0.0 1 0
  11 16.086727 -2.236539 40.007782 0.0 0.0 0.0 1 0
  11 19.089437 -2.103374 40.972813 0.0 0.0 0.0 1 0
phy.bmp
  11 17.559759 -3.314573 34.181995 0.0 0.0 0.0 1 0
  11 19.980906 -3.315617 34.174461 0.0 0.0 0.0 1 0
  11 17.559784 1.414194 33.375587 0.0 0.0 0.0 1 0
phy.bmp
  11 16.086727 -2.236539 40.007782 0.0 0.0 0.0 1 0
  11 17.559759 -3.314573 34.181995 0.0 0.0 0.0 1 0
  11 17.559784 1.414194 33.375587 0.0 0.0 0.0 1 0
phy.bmp
  11 19.089437 1.660725 40.453403 0.0 0.0 0.0 1 0
  11 20.000607 1.413144 33.367996 0.0 0.0 0.0 1 0
  11 19.089437 -2.103374 40.972813 0.0 0.0 0.0 1 0
phy.bmp
  11 19.089437 -2.103374 40.972813 0.0 0.0 0.0 1 0
  11 20.000607 1.413144 33.367996 0.0 0.0 0.0 1 0
  11 19.980906 -3.315617 34.174461 0.0 0.0 0.0 1 0
phy.bmp
  11 19.089437 1.660725 40.453403 0.0 0.0 0.0 1 0
  11 16.086727 1.527560 39.488369 0.0 0.0 0.0 1 0
  11 17.559784 1.414194 33.375587 0.0 0.0 0.0 1 0
phy.bmp
  11 20.000607 1.413144 33.367996 0.0 0.0 0.0 1 0
  11 19.089437 1.660725 40.453403 0.0 0.0 0.0 1 0
  11 17.559784 1.414194 33.375587 0.0 0.0 0.0 1 0
phy.bmp
  11 16.086727 -2.236539 40.007782 0.0 0.0 0.0 1 0
  11 17.559784 1.414194 33.375587 0.0 0.0 0.0 1 0
  11 16.086727 1.527560 39.488369 0.0 0.0 0.0 1 0
phy.bmp
  11 19.980906 -3.315617 34.174461 0.0 0.0 0.0 1 0
  11 20.000607 1.413144 33.367996 0.0 0.0 0.0 1 0
  11 17.559784 1.414194 33.375587 0.0 0.0 0.0 1 0
phy.bmp
  6 -12.045403 -0.604317 51.101761 0.0 0.0 0.0 1 0
  6 -10.679097 -0.058699 50.236408 0.0 0.0 0.0 1 0
  6 -13.398831 0.155013 51.778797 0.0 0.0 0.0 1 0
phy.bmp
  6 -9.059134 -0.400547 62.373257 0.0 0.0 0.0 1 0
  6 -12.045403 -0.604317 51.101761 0.0 0.0 0.0 1 0
  6 -13.398831 0.155013 51.778797 0.0 0.0 0.0 1 0
phy.bmp
  6 -6.701850 -0.400541 55.821724 0.0 0.0 0.0 1 0
  6 -10.679097 -0.058699 50.236408 0.0 0.0 0.0 1 0
  6 -12.045403 -0.604317 51.101761 0.0 0.0 0.0 1 0
phy.bmp
  6 -6.701850 -0.400541 55.821724 0.0 0.0 0.0 1 0
  6 -12.045403 -0.604317 51.101761 0.0 0.0 0.0 1 0
  6 -9.059134 -0.400547 62.373257 0.0 0.0 0.0 1 0
phy.bmp
  6 -10.679097 -0.058699 50.236408 0.0 0.0 0.0 1 0
  6 -13.398635 4.330088 51.200016 0.0 0.0 0.0 1 0
  6 -13.398831 0.155013 51.778797 0.0 0.0 0.0 1 0
phy.bmp
  6 -13.398635 4.330088 51.200016 0.0 0.0 0.0 1 0
  6 -13.824008 2.270386 51.731358 0.0 0.0 0.0 1 0
  6 -13.398831 0.155013 51.778797 0.0 0.0 0.0 1 0
phy.bmp
  6 -13.824008 2.270386 51.731358 0.0 0.0 0.0 1 0
  6 -9.059134 -0.400547 62.373257 0.0 0.0 0.0 1 0
  6 -13.398831 0.155013 51.778797 0.0 0.0 0.0 1 0
phy.bmp
  6 -10.252357 1.990369 49.708450 0.0 0.0 0.0 1 0
  6 -6.701850 -0.400541 55.821724 0.0 0.0 0.0 1 0
  6 -6.701850 5.288811 55.821732 0.0 0.0 0.0 1 0
phy.bmp
  6 -6.701850 5.288811 55.821732 0.0 0.0 0.0 1 0
  6 -10.678700 4.116006 49.657558 0.0 0.0 0.0 1 0
  6 -10.252357 1.990369 49.708450 0.0 0.0 0.0 1 0
phy.bmp
  6 -10.679097 -0.058699 50.236408 0.0 0.0 0.0 1 0
  6 -6.701850 -0.400541 55.821724 0.0 0.0 0.0 1 0
  6 -10.252357 1.990369 49.708450 0.0 0.0 0.0 1 0
phy.bmp
  6 -10.252357 1.990369 49.708450 0.0 0.0 0.0 1 0
  6 -10.678700 4.116006 49.657558 0.0 0.0 0.0 1 0
  6 -10.679097 -0.058699 50.236408 0.0 0.0 0.0 1 0
phy.bmp
  6 -6.701850 5.288811 55.821732 0.0 0.0 0.0 1 0
  6 -9.059137 5.288804 62.373260 0.0 0.0 0.0 1 0
  6 -12.045826 4.876394 50.342369 0.0 0.0 0.0 1 0
phy.bmp
  6 -12.045826 4.876394 50.342369 0.0 0.0 0.0 1 0
  6 -9.059137 5.288804 62.373260 0.0 0.0 0.0 1 0
  6 -13.398635 4.330088 51.200016 0.0 0.0 0.0 1 0
phy.bmp
  6 -12.045826 4.876394 50.342369 0.0 0.0 0.0 1 0
  6 -13.398635 4.330088 51.200016 0.0 0.0 0.0 1 0
  6 -10.679097 -0.058699 50.236408 0.0 0.0 0.0 1 0
phy.bmp
  6 -10.679097 -0.058699 50.236408 0.0 0.0 0.0 1 0
  6 -10.678700 4.116006 49.657558 0.0 0.0 0.0 1 0
  6 -12.045826 4.876394 50.342369 0.0 0.0 0.0 1 0
phy.bmp
  6 -12.045826 4.876394 50.342369 0.0 0.0 0.0 1 0
  6 -10.678700 4.116006 49.657558 0.0 0.0 0.0 1 0
  6 -6.701850 5.288811 55.821732 0.0 0.0 0.0 1 0
phy.bmp
  6 -6.701850 -0.400541 55.821724 0.0 0.0 0.0 1 0
  6 -9.059134 -0.400547 62.373257 0.0 0.0 0.0 1 0
  6 -6.701850 5.288811 55.821732 0.0 0.0 0.0 1 0
phy.bmp
  6 -9.059137 5.288804 62.373260 0.0 0.0 0.0 1 0
  6 -6.701850 5.288811 55.821732 0.0 0.0 0.0 1 0
  6 -9.059134 -0.400547 62.373257 0.0 0.0 0.0 1 0
phy.bmp
  6 -9.059137 5.288804 62.373260 0.0 0.0 0.0 1 0
  6 -13.824008 2.270386 51.731358 0.0 0.0 0.0 1 0
  6 -13.398635 4.330088 51.200016 0.0 0.0 0.0 1 0
phy.bmp
  6 -9.059137 5.288804 62.373260 0.0 0.0 0.0 1 0
  6 -9.059134 -0.400547 62.373257 0.0 0.0 0.0 1 0
  6 -13.824008 2.270386 51.731358 0.0 0.0 0.0 1 0
phy.bmp
  7 -18.526648 1.422188 41.210583 0.0 0.0 0.0 1 0
  7 -12.263859 4.254471 49.618832 0.0 0.0 0.0 1 0
  7 -13.769556 3.836649 50.578114 0.0 0.0 0.0 1 0
phy.bmp
  7 -14.314026 2.256916 51.256302 0.0 0.0 0.0 1 0
  7 -18.526648 1.422188 41.210583 0.0 0.0 0.0 1 0
  7 -13.769556 3.836649 50.578114 0.0 0.0 0.0 1 0
phy.bmp
  7 -14.314026 2.256916 51.256302 0.0 0.0 0.0 1 0
  7 -13.769556 3.836649 50.578114 0.0 0.0 0.0 1 0
  7 -12.263859 4.254471 49.618832 0.0 0.0 0.0 1 0
phy.bmp
  7 -17.300833 1.678838 40.432163 0.0 0.0 0.0 1 0
  7 -12.263859 4.254471 49.618832 0.0 0.0 0.0 1 0
  7 -18.526648 1.422188 41.210583 0.0 0.0 0.0 1 0
phy.bmp
  7 -18.526648 1.422188 41.210583 0.0 0.0 0.0 1 0
  7 -16.078474 1.064114 39.892429 0.0 0.0 0.0 1 0
  7 -17.300833 1.678838 40.432163 0.0 0.0 0.0 1 0
phy.bmp
  7 -17.300833 1.678838 40.432163 0.0 0.0 0.0 1 0
  7 -16.078474 1.064114 39.892429 0.0 0.0 0.0 1 0
  7 -12.263859 4.254471 49.618832 0.0 0.0 0.0 1 0
phy.bmp
  7 -12.265702 -0.314753 50.679504 0.0 0.0 0.0 1 0
  7 -10.762860 0.103538 49.721748 0.0 0.0 0.0 1 0
  7 -16.078472 -1.641380 40.627380 0.0 0.0 0.0 1 0
phy.bmp
  7 -10.762860 0.103538 49.721748 0.0 0.0 0.0 1 0
  7 -10.218381 1.740695 49.030235 0.0 0.0 0.0 1 0
  7 -16.078472 -1.641380 40.627380 0.0 0.0 0.0 1 0
phy.bmp
  7 -10.218381 1.740695 49.030235 0.0 0.0 0.0 1 0
  7 -10.762860 0.103538 49.721748 0.0 0.0 0.0 1 0
  7 -12.265702 -0.314753 50.679504 0.0 0.0 0.0 1 0
phy.bmp
  7 -18.526648 1.422188 41.210583 0.0 0.0 0.0 1 0
  7 -16.078472 -1.641380 40.627380 0.0 0.0 0.0 1 0
  7 -15.683993 -0.323851 40.041401 0.0 0.0 0.0 1 0
phy.bmp
  7 -15.683993 -0.323851 40.041401 0.0 0.0 0.0 1 0
  7 -16.078474 1.064114 39.892429 0.0 0.0 0.0 1 0
  7 -18.526648 1.422188 41.210583 0.0 0.0 0.0 1 0
phy.bmp
  7 -16.078472 -1.641380 40.627380 0.0 0.0 0.0 1 0
  7 -10.218381 1.740695 49.030235 0.0 0.0 0.0 1 0
  7 -15.683993 -0.323851 40.041401 0.0 0.0 0.0 1 0
phy.bmp
  7 -10.218381 1.740695 49.030235 0.0 0.0 0.0 1 0
  7 -16.078474 1.064114 39.892429 0.0 0.0 0.0 1 0
  7 -15.683993 -0.323851 40.041401 0.0 0.0 0.0 1 0
phy.bmp
  7 -12.265702 -0.314753 50.679504 0.0 0.0 0.0 1 0
  7 -18.526623 -1.283299 41.945576 0.0 0.0 0.0 1 0
  7 -13.769554 0.482510 51.355946 0.0 0.0 0.0 1 0
phy.bmp
  7 -14.314026 2.256916 51.256302 0.0 0.0 0.0 1 0
  7 -13.769554 0.482510 51.355946 0.0 0.0 0.0 1 0
  7 -18.526623 -1.283299 41.945576 0.0 0.0 0.0 1 0
phy.bmp
  7 -10.218381 1.740695 49.030235 0.0 0.0 0.0 1 0
  7 -13.769554 0.482510 51.355946 0.0 0.0 0.0 1 0
  7 -12.263859 4.254471 49.618832 0.0 0.0 0.0 1 0
phy.bmp
  7 -14.314026 2.256916 51.256302 0.0 0.0 0.0 1 0
  7 -12.263859 4.254471 49.618832 0.0 0.0 0.0 1 0
  7 -13.769554 0.482510 51.355946 0.0 0.0 0.0 1 0
phy.bmp
  7 -10.218381 1.740695 49.030235 0.0 0.0 0.0 1 0
  7 -12.265702 -0.314753 50.679504 0.0 0.0 0.0 1 0
  7 -13.769554 0.482510 51.355946 0.0 0.0 0.0 1 0
phy.bmp
  7 -18.526648 1.422188 41.210583 0.0 0.0 0.0 1 0
  7 -17.302059 -1.898300 41.404610 0.0 0.0 0.0 1 0
  7 -16.078472 -1.641380 40.627380 0.0 0.0 0.0 1 0
phy.bmp
  7 -18.921116 0.149622 41.784363 0.0 0.0 0.0 1 0
  7 -17.302059 -1.898300 41.404610 0.0 0.0 0.0 1 0
  7 -18.526648 1.422188 41.210583 0.0 0.0 0.0 1 0
phy.bmp
  7 -14.314026 2.256916 51.256302 0.0 0.0 0.0 1 0
  7 -18.921116 0.149622 41.784363 0.0 0.0 0.0 1 0
  7 -18.526648 1.422188 41.210583 0.0 0.0 0.0 1 0
phy.bmp
  7 -10.218381 1.740695 49.030235 0.0 0.0 0.0 1 0
  7 -12.263859 4.254471 49.618832 0.0 0.0 0.0 1 0
  7 -10.762862 3.457678 48.943916 0.0 0.0 0.0 1 0
phy.bmp
  7 -12.263859 4.254471 49.618832 0.0 0.0 0.0 1 0
  7 -16.078474 1.064114 39.892429 0.0 0.0 0.0 1 0
  7 -10.762862 3.457678 48.943916 0.0 0.0 0.0 1 0
phy.bmp
  7 -10.762862 3.457678 48.943916 0.0 0.0 0.0 1 0
  7 -16.078474 1.064114 39.892429 0.0 0.0 0.0 1 0
  7 -10.218381 1.740695 49.030235 0.0 0.0 0.0 1 0
phy.bmp
  7 -17.302059 -1.898300 41.404610 0.0 0.0 0.0 1 0
  7 -18.526623 -1.283299 41.945576 0.0 0.0 0.0 1 0
  7 -12.265702 -0.314753 50.679504 0.0 0.0 0.0 1 0
phy.bmp
  7 -18.526623 -1.283299 41.945576 0.0 0.0 0.0 1 0
  7 -17.302059 -1.898300 41.404610 0.0 0.0 0.0 1 0
  7 -18.921116 0.149622 41.784363 0.0 0.0 0.0 1 0
phy.bmp
  7 -14.314026 2.256916 51.256302 0.0 0.0 0.0 1 0
  7 -18.526623 -1.283299 41.945576 0.0 0.0 0.0 1 0
  7 -18.921116 0.149622 41.784363 0.0 0.0 0.0 1 0
phy.bmp
  7 -17.302059 -1.898300 41.404610 0.0 0.0 0.0 1 0
  7 -12.265702 -0.314753 50.679504 0.0 0.0 0.0 1 0
  7 -16.078472 -1.641380 40.627380 0.0 0.0 0.0 1 0
phy.bmp
  12 -16.086731 -2.236545 40.007759 0.0 0.0 0.0 1 0
  12 -19.089443 -2.103382 40.972794 0.0 0.0 0.0 1 0
  12 -17.488775 -0.186377 40.359852 0.0 0.0 0.0 1 0
phy.bmp
  12 -16.086731 -2.236545 40.007759 0.0 0.0 0.0 1 0
  12 -17.488775 -0.186377 40.359852 0.0 0.0 0.0 1 0
  12 -16.086735 1.527553 39.488350 0.0 0.0 0.0 1 0
phy.bmp
  12 -19.089445 1.660716 40.453384 0.0 0.0 0.0 1 0
  12 -17.488775 -0.186377 40.359852 0.0 0.0 0.0 1 0
  12 -19.089443 -2.103382 40.972794 0.0 0.0 0.0 1 0
phy.bmp
  12 -19.089445 1.660716 40.453384 0.0 0.0 0.0 1 0
  12 -16.086735 1.527553 39.488350 0.0 0.0 0.0 1 0
  12 -17.488775 -0.186377 40.359852 0.0 0.0 0.0 1 0
phy.bmp
  12 -19.980911 -3.315625 34.174442 0.0 0.0 0.0 1 0
  12 -19.089443 -2.103382 40.972794 0.0 0.0 0.0 1 0
  12 -17.559767 -3.314584 34.181976 0.0 0.0 0.0 1 0
phy.bmp
  12 -16.086731 -2.236545 40.007759 0.0 0.0 0.0 1 0
  12 -17.559767 -3.314584 34.181976 0.0 0.0 0.0 1 0
  12 -19.089443 -2.103382 40.972794 0.0 0.0 0.0 1 0
phy.bmp
  12 -17.559795 1.414185 33.375557 0.0 0.0 0.0 1 0
  12 -19.980911 -3.315625 34.174442 0.0 0.0 0.0 1 0
  12 -17.559767 -3.314584 34.181976 0.0 0.0 0.0 1 0
phy.bmp
  12 -16.086731 -2.236545 40.007759 0.0 0.0 0.0 1 0
  12 -17.559795 1.414185 33.375557 0.0 0.0 0.0 1 0
  12 -17.559767 -3.314584 34.181976 0.0 0.0 0.0 1 0
phy.bmp
  12 -19.089443 -2.103382 40.972794 0.0 0.0 0.0 1 0
  12 -19.980911 -3.315625 34.174442 0.0 0.0 0.0 1 0
  12 -19.089445 1.660716 40.453384 0.0 0.0 0.0 1 0
phy.bmp
  12 -16.086735 1.527553 39.488350 0.0 0.0 0.0 1 0
  12 -19.089445 1.660716 40.453384 0.0 0.0 0.0 1 0
  12 -17.559795 1.414185 33.375557 0.0 0.0 0.0 1 0
phy.bmp
  12 -19.089445 1.660716 40.453384 0.0 0.0 0.0 1 0
  12 -20.000616 1.413136 33.367977 0.0 0.0 0.0 1 0
  12 -17.559795 1.414185 33.375557 0.0 0.0 0.0 1 0
phy.bmp
  12 -16.086731 -2.236545 40.007759 0.0 0.0 0.0 1 0
  12 -16.086735 1.527553 39.488350 0.0 0.0 0.0 1 0
  12 -17.559795 1.414185 33.375557 0.0 0.0 0.0 1 0
phy.bmp
  12 -17.559795 1.414185 33.375557 0.0 0.0 0.0 1 0
  12 -20.000616 1.413136 33.367977 0.0 0.0 0.0 1 0
  12 -19.980911 -3.315625 34.174442 0.0 0.0 0.0 1 0
phy.bmp
  12 -19.980911 -3.315625 34.174442 0.0 0.0 0.0 1 0
  12 -20.000616 1.413136 33.367977 0.0 0.0 0.0 1 0
  12 -19.089445 1.660716 40.453384 0.0 0.0 0.0 1 0
phy.bmp
  13 -4.323945 -3.723312 36.851288 0.0 0.0 0.0 1 0
  13 -4.919122 -2.155954 21.847532 0.0 0.0 0.0 1 0
  13 -7.058150 -2.999659 38.019157 0.0 0.0 0.0 1 0
phy.bmp
  13 -7.281852 -1.442628 21.904558 0.0 0.0 0.0 1 0
  13 -7.058150 -2.999659 38.019157 0.0 0.0 0.0 1 0
  13 -4.919122 -2.155954 21.847532 0.0 0.0 0.0 1 0
phy.bmp
  13 -2.714695 -1.417434 21.906466 0.0 0.0 0.0 1 0
  13 -7.281852 -1.442628 21.904558 0.0 0.0 0.0 1 0
  13 -4.919122 -2.155954 21.847532 0.0 0.0 0.0 1 0
phy.bmp
  13 -1.779845 -2.829512 35.889984 0.0 0.0 0.0 1 0
  13 -2.714695 -1.417434 21.906466 0.0 0.0 0.0 1 0
  13 -4.919122 -2.155954 21.847532 0.0 0.0 0.0 1 0
phy.bmp
  13 -4.323945 -3.723312 36.851288 0.0 0.0 0.0 1 0
  13 -1.779845 -2.829512 35.889984 0.0 0.0 0.0 1 0
  13 -4.919122 -2.155954 21.847532 0.0 0.0 0.0 1 0
phy.bmp
  13 -2.714695 -1.417434 21.906466 0.0 0.0 0.0 1 0
  13 -7.282001 4.531010 22.381933 0.0 0.0 0.0 1 0
  13 -8.036957 1.520873 22.141378 0.0 0.0 0.0 1 0
phy.bmp
  13 -2.714695 -1.417434 21.906466 0.0 0.0 0.0 1 0
  13 -4.919116 5.244523 22.438951 0.0 0.0 0.0 1 0
  13 -7.282001 4.531010 22.381933 0.0 0.0 0.0 1 0
phy.bmp
  13 -2.714695 -1.417434 21.906466 0.0 0.0 0.0 1 0
  13 -2.004354 1.520852 22.141380 0.0 0.0 0.0 1 0
  13 -2.714689 4.505992 22.379936 0.0 0.0 0.0 1 0
phy.bmp
  13 -2.714689 4.505992 22.379936 0.0 0.0 0.0 1 0
  13 -4.919116 5.244523 22.438951 0.0 0.0 0.0 1 0
  13 -2.714695 -1.417434 21.906466 0.0 0.0 0.0 1 0
phy.bmp
  13 -8.036957 1.520873 22.141378 0.0 0.0 0.0 1 0
  13 -7.281852 -1.442628 21.904558 0.0 0.0 0.0 1 0
  13 -2.714695 -1.417434 21.906466 0.0 0.0 0.0 1 0
phy.bmp
  13 -1.779845 -2.829512 35.889984 0.0 0.0 0.0 1 0
  13 -0.960059 0.426808 35.817249 0.0 0.0 0.0 1 0
  13 -2.714695 -1.417434 21.906466 0.0 0.0 0.0 1 0
phy.bmp
  13 -2.714695 -1.417434 21.906466 0.0 0.0 0.0 1 0
  13 -0.960059 0.426808 35.817249 0.0 0.0 0.0 1 0
  13 -2.004354 1.520852 22.141380 0.0 0.0 0.0 1 0
phy.bmp
  13 -2.714689 4.505992 22.379936 0.0 0.0 0.0 1 0
  13 -0.960059 0.426808 35.817249 0.0 0.0 0.0 1 0
  13 -1.779852 3.681778 36.410187 0.0 0.0 0.0 1 0
phy.bmp
  13 -2.004354 1.520852 22.141380 0.0 0.0 0.0 1 0
  13 -0.960059 0.426808 35.817249 0.0 0.0 0.0 1 0
  13 -2.714689 4.505992 22.379936 0.0 0.0 0.0 1 0
phy.bmp
  13 -1.779852 3.681778 36.410187 0.0 0.0 0.0 1 0
  13 -4.919116 5.244523 22.438951 0.0 0.0 0.0 1 0
  13 -2.714689 4.505992 22.379936 0.0 0.0 0.0 1 0
phy.bmp
  13 -4.323945 -3.723312 36.851288 0.0 0.0 0.0 1 0
  13 -7.058150 -2.999659 38.019157 0.0 0.0 0.0 1 0
  13 -1.779845 -2.829512 35.889984 0.0 0.0 0.0 1 0
phy.bmp
  13 -7.877940 0.203792 38.607975 0.0 0.0 0.0 1 0
  13 -1.779845 -2.829512 35.889984 0.0 0.0 0.0 1 0
  13 -7.058150 -2.999659 38.019157 0.0 0.0 0.0 1 0
phy.bmp
  13 -7.877940 0.203792 38.607975 0.0 0.0 0.0 1 0
  13 -7.058150 3.511619 38.539490 0.0 0.0 0.0 1 0
  13 -1.779845 -2.829512 35.889984 0.0 0.0 0.0 1 0
phy.bmp
  13 -4.323946 4.411560 37.501366 0.0 0.0 0.0 1 0
  13 -1.779845 -2.829512 35.889984 0.0 0.0 0.0 1 0
  13 -7.058150 3.511619 38.539490 0.0 0.0 0.0 1 0
phy.bmp
  13 -4.323946 4.411560 37.501366 0.0 0.0 0.0 1 0
  13 -1.779852 3.681778 36.410187 0.0 0.0 0.0 1 0
  13 -1.779845 -2.829512 35.889984 0.0 0.0 0.0 1 0
phy.bmp
  13 -0.960059 0.426808 35.817249 0.0 0.0 0.0 1 0
  13 -1.779845 -2.829512 35.889984 0.0 0.0 0.0 1 0
  13 -1.779852 3.681778 36.410187 0.0 0.0 0.0 1 0
phy.bmp
  13 -7.282001 4.531010 22.381933 0.0 0.0 0.0 1 0
  13 -7.058150 3.511619 38.539490 0.0 0.0 0.0 1 0
  13 -8.036957 1.520873 22.141378 0.0 0.0 0.0 1 0
phy.bmp
  13 -7.877940 0.203792 38.607975 0.0 0.0 0.0 1 0
  13 -8.036957 1.520873 22.141378 0.0 0.0 0.0 1 0
  13 -7.058150 3.511619 38.539490 0.0 0.0 0.0 1 0
phy.bmp
  13 -7.058150 3.511619 38.539490 0.0 0.0 0.0 1 0
  13 -4.919116 5.244523 22.438951 0.0 0.0 0.0 1 0
  13 -4.323946 4.411560 37.501366 0.0 0.0 0.0 1 0
phy.bmp
  13 -7.282001 4.531010 22.381933 0.0 0.0 0.0 1 0
  13 -4.919116 5.244523 22.438951 0.0 0.0 0.0 1 0
  13 -7.058150 3.511619 38.539490 0.0 0.0 0.0 1 0
phy.bmp
  13 -4.323946 4.411560 37.501366 0.0 0.0 0.0 1 0
  13 -4.919116 5.244523 22.438951 0.0 0.0 0.0 1 0
  13 -1.779852 3.681778 36.410187 0.0 0.0 0.0 1 0
phy.bmp
  13 -7.281852 -1.442628 21.904558 0.0 0.0 0.0 1 0
  13 -8.036957 1.520873 22.141378 0.0 0.0 0.0 1 0
  13 -7.058150 -2.999659 38.019157 0.0 0.0 0.0 1 0
phy.bmp
  13 -7.877940 0.203792 38.607975 0.0 0.0 0.0 1 0
  13 -7.058150 -2.999659 38.019157 0.0 0.0 0.0 1 0
  13 -8.036957 1.520873 22.141378 0.0 0.0 0.0 1 0
phy.bmp
  18 -3.802479 0.245512 4.356031 0.0 0.0 0.0 1 0
  18 -5.467906 -0.402271 4.635864 0.0 0.0 0.0 1 0
  18 -3.021388 -0.806050 20.924469 0.0 0.0 0.0 1 0
phy.bmp
  18 -4.960842 -1.542304 21.027157 0.0 0.0 0.0 1 0
  18 -3.021388 -0.806050 20.924469 0.0 0.0 0.0 1 0
  18 -5.467906 -0.402271 4.635864 0.0 0.0 0.0 1 0
phy.bmp
  18 -7.204660 0.244879 4.548295 0.0 0.0 0.0 1 0
  18 -6.971300 -0.806062 21.147476 0.0 0.0 0.0 1 0
  18 -5.467906 -0.402271 4.635864 0.0 0.0 0.0 1 0
phy.bmp
  18 -4.960842 -1.542304 21.027157 0.0 0.0 0.0 1 0
  18 -5.467906 -0.402271 4.635864 0.0 0.0 0.0 1 0
  18 -6.971300 -0.806062 21.147476 0.0 0.0 0.0 1 0
phy.bmp
  18 -8.160728 2.805205 3.867879 0.0 0.0 0.0 1 0
  18 -7.204660 0.244879 4.548295 0.0 0.0 0.0 1 0
  18 -5.467906 -0.402271 4.635864 0.0 0.0 0.0 1 0
phy.bmp
  18 -3.802479 0.245512 4.356031 0.0 0.0 0.0 1 0
  18 -2.960269 2.756129 3.588346 0.0 0.0 0.0 1 0
  18 -5.467906 -0.402271 4.635864 0.0 0.0 0.0 1 0
phy.bmp
  18 -5.467906 -0.402271 4.635864 0.0 0.0 0.0 1 0
  18 -2.960269 2.756129 3.588346 0.0 0.0 0.0 1 0
  18 -8.160728 2.805205 3.867879 0.0 0.0 0.0 1 0
phy.bmp
  18 -3.021388 -0.806050 20.924469 0.0 0.0 0.0 1 0
  18 -1.992637 2.083362 20.893118 0.0 0.0 0.0 1 0
  18 -3.802479 0.245512 4.356031 0.0 0.0 0.0 1 0
phy.bmp
  18 -4.960842 -1.542304 21.027157 0.0 0.0 0.0 1 0
  18 -1.992637 2.083362 20.893118 0.0 0.0 0.0 1 0
  18 -3.021388 -0.806050 20.924469 0.0 0.0 0.0 1 0
phy.bmp
  18 -8.011943 2.083363 21.232962 0.0 0.0 0.0 1 0
  18 -8.160728 2.805205 3.867879 0.0 0.0 0.0 1 0
  18 -7.285625 5.411116 3.071008 0.0 0.0 0.0 1 0
phy.bmp
  18 -8.011943 2.083363 21.232962 0.0 0.0 0.0 1 0
  18 -7.285625 5.411116 3.071008 0.0 0.0 0.0 1 0
  18 -6.968210 5.130203 21.202221 0.0 0.0 0.0 1 0
phy.bmp
  18 -4.956975 5.884011 21.095642 0.0 0.0 0.0 1 0
  18 -6.968210 5.130203 21.202221 0.0 0.0 0.0 1 0
  18 -7.285625 5.411116 3.071008 0.0 0.0 0.0 1 0
phy.bmp
  18 -7.285625 5.411116 3.071008 0.0 0.0 0.0 1 0
  18 -5.567351 6.059351 2.788056 0.0 0.0 0.0 1 0
  18 -4.956975 5.884011 21.095642 0.0 0.0 0.0 1 0
phy.bmp
  18 -8.160728 2.805205 3.867879 0.0 0.0 0.0 1 0
  18 -5.567351 6.059351 2.788056 0.0 0.0 0.0 1 0
  18 -7.285625 5.411116 3.071008 0.0 0.0 0.0 1 0
phy.bmp
  18 -3.885853 5.406195 2.880471 0.0 0.0 0.0 1 0
  18 -3.018298 5.130203 20.979214 0.0 0.0 0.0 1 0
  18 -4.956975 5.884011 21.095642 0.0 0.0 0.0 1 0
phy.bmp
  18 -4.956975 5.884011 21.095642 0.0 0.0 0.0 1 0
  18 -5.567351 6.059351 2.788056 0.0 0.0 0.0 1 0
  18 -3.885853 5.406195 2.880471 0.0 0.0 0.0 1 0
phy.bmp
  18 -3.018298 5.130203 20.979214 0.0 0.0 0.0 1 0
  18 -1.992637 2.083362 20.893118 0.0 0.0 0.0 1 0
  18 -4.956975 5.884011 21.095642 0.0 0.0 0.0 1 0
phy.bmp
  18 -4.960842 -1.542304 21.027157 0.0 0.0 0.0 1 0
  18 -4.956975 5.884011 21.095642 0.0 0.0 0.0 1 0
  18 -1.992637 2.083362 20.893118 0.0 0.0 0.0 1 0
phy.bmp
  18 -4.960842 -1.542304 21.027157 0.0 0.0 0.0 1 0
  18 -6.968210 5.130203 21.202221 0.0 0.0 0.0 1 0
  18 -4.956975 5.884011 21.095642 0.0 0.0 0.0 1 0
phy.bmp
  18 -1.992637 2.083362 20.893118 0.0 0.0 0.0 1 0
  18 -2.960269 2.756129 3.588346 0.0 0.0 0.0 1 0
  18 -3.802479 0.245512 4.356031 0.0 0.0 0.0 1 0
phy.bmp
  18 -2.960269 2.756129 3.588346 0.0 0.0 0.0 1 0
  18 -3.018298 5.130203 20.979214 0.0 0.0 0.0 1 0
  18 -3.885853 5.406195 2.880471 0.0 0.0 0.0 1 0
phy.bmp
  18 -3.885853 5.406195 2.880471 0.0 0.0 0.0 1 0
  18 -5.567351 6.059351 2.788056 0.0 0.0 0.0 1 0
  18 -2.960269 2.756129 3.588346 0.0 0.0 0.0 1 0
phy.bmp
  18 -1.992637 2.083362 20.893118 0.0 0.0 0.0 1 0
  18 -3.018298 5.130203 20.979214 0.0 0.0 0.0 1 0
  18 -2.960269 2.756129 3.588346 0.0 0.0 0.0 1 0
phy.bmp
  18 -7.204660 0.244879 4.548295 0.0 0.0 0.0 1 0
  18 -8.160728 2.805205 3.867879 0.0 0.0 0.0 1 0
  18 -6.971300 -0.806062 21.147476 0.0 0.0 0.0 1 0
phy.bmp
  18 -8.011943 2.083363 21.232962 0.0 0.0 0.0 1 0
  18 -6.971300 -0.806062 21.147476 0.0 0.0 0.0 1 0
  18 -8.160728 2.805205 3.867879 0.0 0.0 0.0 1 0
phy.bmp
  18 -2.960269 2.756129 3.588346 0.0 0.0 0.0 1 0
  18 -5.567351 6.059351 2.788056 0.0 0.0 0.0 1 0
  18 -8.160728 2.805205 3.867879 0.0 0.0 0.0 1 0
phy.bmp
  18 -4.960842 -1.542304 21.027157 0.0 0.0 0.0 1 0
  18 -6.971300 -0.806062 21.147476 0.0 0.0 0.0 1 0
  18 -8.011943 2.083363 21.232962 0.0 0.0 0.0 1 0
phy.bmp
  18 -4.960842 -1.542304 21.027157 0.0 0.0 0.0 1 0
  18 -8.011943 2.083363 21.232962 0.0 0.0 0.0 1 0
  18 -6.968210 5.130203 21.202221 0.0 0.0 0.0 1 0
phy.bmp
  19 -3.766641 -0.406981 4.150409 0.0 0.0 0.0 1 0
  19 -9.264768 -4.912304 1.791909 0.0 0.0 0.0 1 0
  19 -8.194256 0.424533 4.150409 0.0 0.0 0.0 1 0
phy.bmp
  19 -3.766641 -0.406981 4.150409 0.0 0.0 0.0 1 0
  19 -4.839127 -5.743379 1.791939 0.0 0.0 0.0 1 0
  19 -9.264768 -4.912304 1.791909 0.0 0.0 0.0 1 0
phy.bmp
  19 -9.385276 -5.498974 -0.015973 0.0 0.0 0.0 1 0
  19 -8.194256 0.424533 4.150409 0.0 0.0 0.0 1 0
  19 -9.264768 -4.912304 1.791909 0.0 0.0 0.0 1 0
phy.bmp
  19 -4.839127 -5.743379 1.791939 0.0 0.0 0.0 1 0
  19 -4.955933 -6.330754 -0.015973 0.0 0.0 0.0 1 0
  19 -9.264768 -4.912304 1.791909 0.0 0.0 0.0 1 0
phy.bmp
  19 -4.955933 -6.330754 -0.015973 0.0 0.0 0.0 1 0
  19 -9.385276 -5.498974 -0.015973 0.0 0.0 0.0 1 0
  19 -9.264768 -4.912304 1.791909 0.0 0.0 0.0 1 0
phy.bmp
  19 -3.807768 -0.627848 -0.016049 0.0 0.0 0.0 1 0
  19 -6.350229 5.504121 -0.016099 0.0 0.0 0.0 1 0
  19 -8.131096 0.778764 -0.016043 0.0 0.0 0.0 1 0
phy.bmp
  19 -8.131096 0.778764 -0.016043 0.0 0.0 0.0 1 0
  19 -9.385276 -5.498974 -0.015973 0.0 0.0 0.0 1 0
  19 -3.807768 -0.627848 -0.016049 0.0 0.0 0.0 1 0
phy.bmp
  19 -2.801044 4.827663 -0.016099 0.0 0.0 0.0 1 0
  19 -6.350229 5.504121 -0.016099 0.0 0.0 0.0 1 0
  19 -3.807768 -0.627848 -0.016049 0.0 0.0 0.0 1 0
phy.bmp
  19 -3.807768 -0.627848 -0.016049 0.0 0.0 0.0 1 0
  19 -9.385276 -5.498974 -0.015973 0.0 0.0 0.0 1 0
  19 -4.955933 -6.330754 -0.015973 0.0 0.0 0.0 1 0
phy.bmp
  19 -3.807768 -0.627848 -0.016049 0.0 0.0 0.0 1 0
  19 -3.766641 -0.406981 4.150409 0.0 0.0 0.0 1 0
  19 -2.801044 4.827663 -0.016099 0.0 0.0 0.0 1 0
phy.bmp
  19 -3.807768 -0.627848 -0.016049 0.0 0.0 0.0 1 0
  19 -4.955933 -6.330754 -0.015973 0.0 0.0 0.0 1 0
  19 -3.766641 -0.406981 4.150409 0.0 0.0 0.0 1 0
phy.bmp
  19 -6.349920 5.504076 3.574167 0.0 0.0 0.0 1 0
  19 -8.194256 0.424533 4.150409 0.0 0.0 0.0 1 0
  19 -8.131096 0.778764 -0.016043 0.0 0.0 0.0 1 0
phy.bmp
  19 -9.385276 -5.498974 -0.015973 0.0 0.0 0.0 1 0
  19 -8.131096 0.778764 -0.016043 0.0 0.0 0.0 1 0
  19 -8.194256 0.424533 4.150409 0.0 0.0 0.0 1 0
phy.bmp
  19 -6.349920 5.504076 3.574167 0.0 0.0 0.0 1 0
  19 -3.766641 -0.406981 4.150409 0.0 0.0 0.0 1 0
  19 -8.194256 0.424533 4.150409 0.0 0.0 0.0 1 0
phy.bmp
  19 -3.766641 -0.406981 4.150409 0.0 0.0 0.0 1 0
  19 -4.955933 -6.330754 -0.015973 0.0 0.0 0.0 1 0
  19 -4.839127 -5.743379 1.791939 0.0 0.0 0.0 1 0
phy.bmp
  19 -6.350229 5.504121 -0.016099 0.0 0.0 0.0 1 0
  19 -6.349920 5.504076 3.574167 0.0 0.0 0.0 1 0
  19 -8.131096 0.778764 -0.016043 0.0 0.0 0.0 1 0
phy.bmp
  19 -6.350229 5.504121 -0.016099 0.0 0.0 0.0 1 0
  19 -2.801044 4.827663 -0.016099 0.0 0.0 0.0 1 0
  19 -6.349920 5.504076 3.574167 0.0 0.0 0.0 1 0
phy.bmp
  19 -2.800736 4.827606 3.575215 0.0 0.0 0.0 1 0
  19 -6.349920 5.504076 3.574167 0.0 0.0 0.0 1 0
  19 -2.801044 4.827663 -0.016099 0.0 0.0 0.0 1 0
phy.bmp
  19 -3.766641 -0.406981 4.150409 0.0 0.0 0.0 1 0
  19 -2.800736 4.827606 3.575215 0.0 0.0 0.0 1 0
  19 -2.801044 4.827663 -0.016099 0.0 0.0 0.0 1 0
phy.bmp
  19 -2.800736 4.827606 3.575215 0.0 0.0 0.0 1 0
  19 -3.766641 -0.406981 4.150409 0.0 0.0 0.0 1 0
  19 -6.349920 5.504076 3.574167 0.0 0.0 0.0 1 0
phy.bmp
  21 4.323947 -3.723312 36.851280 0.0 0.0 0.0 1 0
  21 7.058150 -2.999659 38.019150 0.0 0.0 0.0 1 0
  21 4.919125 -2.155953 21.847553 0.0 0.0 0.0 1 0
phy.bmp
  21 7.281854 -1.442626 21.904554 0.0 0.0 0.0 1 0
  21 4.919125 -2.155953 21.847553 0.0 0.0 0.0 1 0
  21 7.058150 -2.999659 38.019150 0.0 0.0 0.0 1 0
phy.bmp
  21 4.919125 -2.155953 21.847553 0.0 0.0 0.0 1 0
  21 7.281854 -1.442626 21.904554 0.0 0.0 0.0 1 0
  21 2.714703 -1.417417 21.906378 0.0 0.0 0.0 1 0
phy.bmp
  21 1.779849 -2.829506 35.889908 0.0 0.0 0.0 1 0
  21 4.919125 -2.155953 21.847553 0.0 0.0 0.0 1 0
  21 2.714703 -1.417417 21.906378 0.0 0.0 0.0 1 0
phy.bmp
  21 4.323947 -3.723312 36.851280 0.0 0.0 0.0 1 0
  21 4.919125 -2.155953 21.847553 0.0 0.0 0.0 1 0
  21 1.779849 -2.829506 35.889908 0.0 0.0 0.0 1 0
phy.bmp
  21 8.036960 1.520875 22.141378 0.0 0.0 0.0 1 0
  21 7.282002 4.531013 22.381927 0.0 0.0 0.0 1 0
  21 2.714703 -1.417417 21.906378 0.0 0.0 0.0 1 0
phy.bmp
  21 7.282002 4.531013 22.381927 0.0 0.0 0.0 1 0
  21 4.919120 5.244525 22.438946 0.0 0.0 0.0 1 0
  21 2.714703 -1.417417 21.906378 0.0 0.0 0.0 1 0
phy.bmp
  21 2.714695 4.506011 22.379957 0.0 0.0 0.0 1 0
  21 2.004356 1.520853 22.141376 0.0 0.0 0.0 1 0
  21 2.714703 -1.417417 21.906378 0.0 0.0 0.0 1 0
phy.bmp
  21 2.714703 -1.417417 21.906378 0.0 0.0 0.0 1 0
  21 4.919120 5.244525 22.438946 0.0 0.0 0.0 1 0
  21 2.714695 4.506011 22.379957 0.0 0.0 0.0 1 0
phy.bmp
  21 2.714703 -1.417417 21.906378 0.0 0.0 0.0 1 0
  21 7.281854 -1.442626 21.904554 0.0 0.0 0.0 1 0
  21 8.036960 1.520875 22.141378 0.0 0.0 0.0 1 0
phy.bmp
  21 0.960051 0.426844 35.817242 0.0 0.0 0.0 1 0
  21 1.779849 -2.829506 35.889908 0.0 0.0 0.0 1 0
  21 2.714703 -1.417417 21.906378 0.0 0.0 0.0 1 0
phy.bmp
  21 0.960051 0.426844 35.817242 0.0 0.0 0.0 1 0
  21 2.714703 -1.417417 21.906378 0.0 0.0 0.0 1 0
  21 2.004356 1.520853 22.141376 0.0 0.0 0.0 1 0
phy.bmp
  21 0.960051 0.426844 35.817242 0.0 0.0 0.0 1 0
  21 2.714695 4.506011 22.379957 0.0 0.0 0.0 1 0
  21 1.779852 3.681779 36.410183 0.0 0.0 0.0 1 0
phy.bmp
  21 0.960051 0.426844 35.817242 0.0 0.0 0.0 1 0
  21 2.004356 1.520853 22.141376 0.0 0.0 0.0 1 0
  21 2.714695 4.506011 22.379957 0.0 0.0 0.0 1 0
phy.bmp
  21 2.714695 4.506011 22.379957 0.0 0.0 0.0 1 0
  21 4.919120 5.244525 22.438946 0.0 0.0 0.0 1 0
  21 1.779852 3.681779 36.410183 0.0 0.0 0.0 1 0
phy.bmp
  21 4.323948 4.411561 37.501362 0.0 0.0 0.0 1 0
  21 7.058150 3.511620 38.539486 0.0 0.0 0.0 1 0
  21 1.779849 -2.829506 35.889908 0.0 0.0 0.0 1 0
phy.bmp
  21 7.877942 0.203792 38.607971 0.0 0.0 0.0 1 0
  21 1.779849 -2.829506 35.889908 0.0 0.0 0.0 1 0
  21 7.058150 3.511620 38.539486 0.0 0.0 0.0 1 0
phy.bmp
  21 4.323948 4.411561 37.501362 0.0 0.0 0.0 1 0
  21 1.779849 -2.829506 35.889908 0.0 0.0 0.0 1 0
  21 1.779852 3.681779 36.410183 0.0 0.0 0.0 1 0
phy.bmp
  21 4.323947 -3.723312 36.851280 0.0 0.0 0.0 1 0
  21 1.779849 -2.829506 35.889908 0.0 0.0 0.0 1 0
  21 7.058150 -2.999659 38.019150 0.0 0.0 0.0 1 0
phy.bmp
  21 7.877942 0.203792 38.607971 0.0 0.0 0.0 1 0
  21 7.058150 -2.999659 38.019150 0.0 0.0 0.0 1 0
  21 1.779849 -2.829506 35.889908 0.0 0.0 0.0 1 0
phy.bmp
  21 0.960051 0.426844 35.817242 0.0 0.0 0.0 1 0
  21 1.779852 3.681779 36.410183 0.0 0.0 0.0 1 0
  21 1.779849 -2.829506 35.889908 0.0 0.0 0.0 1 0
phy.bmp
  21 4.323948 4.411561 37.501362 0.0 0.0 0.0 1 0
  21 7.282002 4.531013 22.381927 0.0 0.0 0.0 1 0
  21 7.058150 3.511620 38.539486 0.0 0.0 0.0 1 0
phy.bmp
  21 7.282002 4.531013 22.381927 0.0 0.0 0.0 1 0
  21 7.877942 0.203792 38.607971 0.0 0.0 0.0 1 0
  21 7.058150 3.511620 38.539486 0.0 0.0 0.0 1 0
phy.bmp
  21 1.779852 3.681779 36.410183 0.0 0.0 0.0 1 0
  21 4.919120 5.244525 22.438946 0.0 0.0 0.0 1 0
  21 4.323948 4.411561 37.501362 0.0 0.0 0.0 1 0
phy.bmp
  21 8.036960 1.520875 22.141378 0.0 0.0 0.0 1 0
  21 7.281854 -1.442626 21.904554 0.0 0.0 0.0 1 0
  21 7.058150 -2.999659 38.019150 0.0 0.0 0.0 1 0
phy.bmp
  21 7.058150 -2.999659 38.019150 0.0 0.0 0.0 1 0
  21 7.877942 0.203792 38.607971 0.0 0.0 0.0 1 0
  21 8.036960 1.520875 22.141378 0.0 0.0 0.0 1 0
phy.bmp
  21 8.036960 1.520875 22.141378 0.0 0.0 0.0 1 0
  21 7.877942 0.203792 38.607971 0.0 0.0 0.0 1 0
  21 7.282002 4.531013 22.381927 0.0 0.0 0.0 1 0
phy.bmp
  21 4.323948 4.411561 37.501362 0.0 0.0 0.0 1 0
  21 4.919120 5.244525 22.438946 0.0 0.0 0.0 1 0
  21 7.282002 4.531013 22.381927 0.0 0.0 0.0 1 0
phy.bmp
  39 3.802483 0.245515 4.356025 0.0 0.0 0.0 1 0
  39 3.021390 -0.806049 20.924467 0.0 0.0 0.0 1 0
  39 5.467909 -0.402268 4.635863 0.0 0.0 0.0 1 0
phy.bmp
  39 4.960845 -1.542302 21.027155 0.0 0.0 0.0 1 0
  39 5.467909 -0.402268 4.635863 0.0 0.0 0.0 1 0
  39 3.021390 -0.806049 20.924467 0.0 0.0 0.0 1 0
phy.bmp
  39 1.992638 2.083365 20.893116 0.0 0.0 0.0 1 0
  39 3.021390 -0.806049 20.924467 0.0 0.0 0.0 1 0
  39 3.802483 0.245515 4.356025 0.0 0.0 0.0 1 0
phy.bmp
  39 4.960845 -1.542302 21.027155 0.0 0.0 0.0 1 0
  39 3.021390 -0.806049 20.924467 0.0 0.0 0.0 1 0
  39 1.992638 2.083365 20.893116 0.0 0.0 0.0 1 0
phy.bmp
  39 7.204665 0.244882 4.548294 0.0 0.0 0.0 1 0
  39 5.467909 -0.402268 4.635863 0.0 0.0 0.0 1 0
  39 6.971294 -0.806063 21.147474 0.0 0.0 0.0 1 0
phy.bmp
  39 4.960845 -1.542302 21.027155 0.0 0.0 0.0 1 0
  39 6.971294 -0.806063 21.147474 0.0 0.0 0.0 1 0
  39 5.467909 -0.402268 4.635863 0.0 0.0 0.0 1 0
phy.bmp
  39 5.467909 -0.402268 4.635863 0.0 0.0 0.0 1 0
  39 7.204665 0.244882 4.548294 0.0 0.0 0.0 1 0
  39 3.802483 0.245515 4.356025 0.0 0.0 0.0 1 0
phy.bmp
  39 3.885856 5.406198 2.880466 0.0 0.0 0.0 1 0
  39 8.160732 2.805209 3.867877 0.0 0.0 0.0 1 0
  39 7.285628 5.411120 3.071004 0.0 0.0 0.0 1 0
phy.bmp
  39 7.285628 5.411120 3.071004 0.0 0.0 0.0 1 0
  39 5.567355 6.059355 2.788056 0.0 0.0 0.0 1 0
  39 3.885856 5.406198 2.880466 0.0 0.0 0.0 1 0
phy.bmp
  39 8.160732 2.805209 3.867877 0.0 0.0 0.0 1 0
  39 6.968213 5.130205 21.202219 0.0 0.0 0.0 1 0
  39 7.285628 5.411120 3.071004 0.0 0.0 0.0 1 0
phy.bmp
  39 6.968213 5.130205 21.202219 0.0 0.0 0.0 1 0
  39 5.567355 6.059355 2.788056 0.0 0.0 0.0 1 0
  39 7.285628 5.411120 3.071004 0.0 0.0 0.0 1 0
phy.bmp
  39 6.968213 5.130205 21.202219 0.0 0.0 0.0 1 0
  39 1.992638 2.083365 20.893116 0.0 0.0 0.0 1 0
  39 4.956978 5.884013 21.095640 0.0 0.0 0.0 1 0
phy.bmp
  39 3.018299 5.130204 20.979212 0.0 0.0 0.0 1 0
  39 4.956978 5.884013 21.095640 0.0 0.0 0.0 1 0
  39 1.992638 2.083365 20.893116 0.0 0.0 0.0 1 0
phy.bmp
  39 4.956978 5.884013 21.095640 0.0 0.0 0.0 1 0
  39 3.018299 5.130204 20.979212 0.0 0.0 0.0 1 0
  39 3.885856 5.406198 2.880466 0.0 0.0 0.0 1 0
phy.bmp
  39 3.885856 5.406198 2.880466 0.0 0.0 0.0 1 0
  39 5.567355 6.059355 2.788056 0.0 0.0 0.0 1 0
  39 4.956978 5.884013 21.095640 0.0 0.0 0.0 1 0
phy.bmp
  39 4.956978 5.884013 21.095640 0.0 0.0 0.0 1 0
  39 5.567355 6.059355 2.788056 0.0 0.0 0.0 1 0
  39 6.968213 5.130205 21.202219 0.0 0.0 0.0 1 0
phy.bmp
  39 8.160732 2.805209 3.867877 0.0 0.0 0.0 1 0
  39 2.960273 2.756133 3.588339 0.0 0.0 0.0 1 0
  39 3.802483 0.245515 4.356025 0.0 0.0 0.0 1 0
phy.bmp
  39 3.802483 0.245515 4.356025 0.0 0.0 0.0 1 0
  39 7.204665 0.244882 4.548294 0.0 0.0 0.0 1 0
  39 8.160732 2.805209 3.867877 0.0 0.0 0.0 1 0
phy.bmp
  39 2.960273 2.756133 3.588339 0.0 0.0 0.0 1 0
  39 1.992638 2.083365 20.893116 0.0 0.0 0.0 1 0
  39 3.802483 0.245515 4.356025 0.0 0.0 0.0 1 0
phy.bmp
  39 2.960273 2.756133 3.588339 0.0 0.0 0.0 1 0
  39 3.885856 5.406198 2.880466 0.0 0.0 0.0 1 0
  39 1.992638 2.083365 20.893116 0.0 0.0 0.0 1 0
phy.bmp
  39 3.018299 5.130204 20.979212 0.0 0.0 0.0 1 0
  39 1.992638 2.083365 20.893116 0.0 0.0 0.0 1 0
  39 3.885856 5.406198 2.880466 0.0 0.0 0.0 1 0
phy.bmp
  39 3.885856 5.406198 2.880466 0.0 0.0 0.0 1 0
  39 2.960273 2.756133 3.588339 0.0 0.0 0.0 1 0
  39 8.160732 2.805209 3.867877 0.0 0.0 0.0 1 0
phy.bmp
  39 4.960845 -1.542302 21.027155 0.0 0.0 0.0 1 0
  39 1.992638 2.083365 20.893116 0.0 0.0 0.0 1 0
  39 6.968213 5.130205 21.202219 0.0 0.0 0.0 1 0
phy.bmp
  39 8.160732 2.805209 3.867877 0.0 0.0 0.0 1 0
  39 7.204665 0.244882 4.548294 0.0 0.0 0.0 1 0
  39 6.971294 -0.806063 21.147474 0.0 0.0 0.0 1 0
phy.bmp
  39 6.971294 -0.806063 21.147474 0.0 0.0 0.0 1 0
  39 8.011946 2.083364 21.232960 0.0 0.0 0.0 1 0
  39 8.160732 2.805209 3.867877 0.0 0.0 0.0 1 0
phy.bmp
  39 8.160732 2.805209 3.867877 0.0 0.0 0.0 1 0
  39 8.011946 2.083364 21.232960 0.0 0.0 0.0 1 0
  39 6.968213 5.130205 21.202219 0.0 0.0 0.0 1 0
phy.bmp
  39 4.960845 -1.542302 21.027155 0.0 0.0 0.0 1 0
  39 8.011946 2.083364 21.232960 0.0 0.0 0.0 1 0
  39 6.971294 -0.806063 21.147474 0.0 0.0 0.0 1 0
phy.bmp
  39 4.960845 -1.542302 21.027155 0.0 0.0 0.0 1 0
  39 6.968213 5.130205 21.202219 0.0 0.0 0.0 1 0
  39 8.011946 2.083364 21.232960 0.0 0.0 0.0 1 0
phy.bmp
  40 3.766644 -0.406978 4.150400 0.0 0.0 0.0 1 0
  40 8.194258 0.424542 4.150401 0.0 0.0 0.0 1 0
  40 9.264772 -4.912301 1.791900 0.0 0.0 0.0 1 0
phy.bmp
  40 3.766644 -0.406978 4.150400 0.0 0.0 0.0 1 0
  40 9.264772 -4.912301 1.791900 0.0 0.0 0.0 1 0
  40 4.839131 -5.743376 1.791929 0.0 0.0 0.0 1 0
phy.bmp
  40 8.194258 0.424542 4.150401 0.0 0.0 0.0 1 0
  40 8.131100 0.778771 -0.016053 0.0 0.0 0.0 1 0
  40 9.264772 -4.912301 1.791900 0.0 0.0 0.0 1 0
phy.bmp
  40 8.131100 0.778771 -0.016053 0.0 0.0 0.0 1 0
  40 9.385281 -5.498970 -0.015982 0.0 0.0 0.0 1 0
  40 9.264772 -4.912301 1.791900 0.0 0.0 0.0 1 0
phy.bmp
  40 9.264772 -4.912301 1.791900 0.0 0.0 0.0 1 0
  40 4.955938 -6.330750 -0.015982 0.0 0.0 0.0 1 0
  40 4.839131 -5.743376 1.791929 0.0 0.0 0.0 1 0
phy.bmp
  40 9.264772 -4.912301 1.791900 0.0 0.0 0.0 1 0
  40 9.385281 -5.498970 -0.015982 0.0 0.0 0.0 1 0
  40 4.955938 -6.330750 -0.015982 0.0 0.0 0.0 1 0
phy.bmp
  40 3.766644 -0.406978 4.150400 0.0 0.0 0.0 1 0
  40 3.807761 -0.627794 -0.016053 0.0 0.0 0.0 1 0
  40 2.801046 4.827668 -0.016110 0.0 0.0 0.0 1 0
phy.bmp
  40 4.955938 -6.330750 -0.015982 0.0 0.0 0.0 1 0
  40 3.807761 -0.627794 -0.016053 0.0 0.0 0.0 1 0
  40 3.766644 -0.406978 4.150400 0.0 0.0 0.0 1 0
phy.bmp
  40 3.807761 -0.627794 -0.016053 0.0 0.0 0.0 1 0
  40 9.385281 -5.498970 -0.015982 0.0 0.0 0.0 1 0
  40 6.350232 5.504125 -0.016111 0.0 0.0 0.0 1 0
phy.bmp
  40 4.955938 -6.330750 -0.015982 0.0 0.0 0.0 1 0
  40 9.385281 -5.498970 -0.015982 0.0 0.0 0.0 1 0
  40 3.807761 -0.627794 -0.016053 0.0 0.0 0.0 1 0
phy.bmp
  40 3.807761 -0.627794 -0.016053 0.0 0.0 0.0 1 0
  40 6.350232 5.504125 -0.016111 0.0 0.0 0.0 1 0
  40 2.801046 4.827668 -0.016110 0.0 0.0 0.0 1 0
phy.bmp
  40 8.194258 0.424542 4.150401 0.0 0.0 0.0 1 0
  40 6.349933 5.504039 3.574159 0.0 0.0 0.0 1 0
  40 8.131100 0.778771 -0.016053 0.0 0.0 0.0 1 0
phy.bmp
  40 6.349933 5.504039 3.574159 0.0 0.0 0.0 1 0
  40 8.194258 0.424542 4.150401 0.0 0.0 0.0 1 0
  40 3.766644 -0.406978 4.150400 0.0 0.0 0.0 1 0
phy.bmp
  40 4.955938 -6.330750 -0.015982 0.0 0.0 0.0 1 0
  40 3.766644 -0.406978 4.150400 0.0 0.0 0.0 1 0
  40 4.839131 -5.743376 1.791929 0.0 0.0 0.0 1 0
phy.bmp
  40 6.349933 5.504039 3.574159 0.0 0.0 0.0 1 0
  40 6.350232 5.504125 -0.016111 0.0 0.0 0.0 1 0
  40 8.131100 0.778771 -0.016053 0.0 0.0 0.0 1 0
phy.bmp
  40 6.350232 5.504125 -0.016111 0.0 0.0 0.0 1 0
  40 9.385281 -5.498970 -0.015982 0.0 0.0 0.0 1 0
  40 8.131100 0.778771 -0.016053 0.0 0.0 0.0 1 0
phy.bmp
  40 2.800738 4.827610 3.575205 0.0 0.0 0.0 1 0
  40 3.766644 -0.406978 4.150400 0.0 0.0 0.0 1 0
  40 2.801046 4.827668 -0.016110 0.0 0.0 0.0 1 0
phy.bmp
  40 2.800738 4.827610 3.575205 0.0 0.0 0.0 1 0
  40 2.801046 4.827668 -0.016110 0.0 0.0 0.0 1 0
  40 6.350232 5.504125 -0.016111 0.0 0.0 0.0 1 0
phy.bmp
  40 2.800738 4.827610 3.575205 0.0 0.0 0.0 1 0
  40 6.349933 5.504039 3.574159 0.0 0.0 0.0 1 0
  40 3.766644 -0.406978 4.150400 0.0 0.0 0.0 1 0
phy.bmp
  40 2.800738 4.827610 3.575205 0.0 0.0 0.0 1 0
  40 6.350232 5.504125 -0.016111 0.0 0.0 0.0 1 0
  40 6.349933 5.504039 3.574159 0.0 0.0 0.0 1 0
phy.bmp
  17 0.000004 2.571942 75.852417 0.0 0.0 0.0 1 0
  17 2.451206 -0.009644 75.852417 0.0 0.0 0.0 1 0
  17 1.754319 -1.360153 75.852417 0.0 0.0 0.0 1 0
phy.bmp
  17 0.000004 2.571942 75.852417 0.0 0.0 0.0 1 0
  17 1.754303 2.081483 75.852417 0.0 0.0 0.0 1 0
  17 2.451206 -0.009644 75.852417 0.0 0.0 0.0 1 0
phy.bmp
  17 0.000004 2.571942 75.852417 0.0 0.0 0.0 1 0
  17 -2.451182 -0.009671 75.852417 0.0 0.0 0.0 1 0
  17 -1.754306 2.081478 75.852417 0.0 0.0 0.0 1 0
phy.bmp
  17 -1.754320 -1.360153 75.852417 0.0 0.0 0.0 1 0
  17 -2.451182 -0.009671 75.852417 0.0 0.0 0.0 1 0
  17 0.000004 2.571942 75.852417 0.0 0.0 0.0 1 0
phy.bmp
  17 1.754319 -1.360153 75.852417 0.0 0.0 0.0 1 0
  17 -1.754320 -1.360153 75.852417 0.0 0.0 0.0 1 0
  17 0.000004 2.571942 75.852417 0.0 0.0 0.0 1 0
phy.bmp
  17 -1.754306 2.081478 75.852417 0.0 0.0 0.0 1 0
  17 0.000004 4.233887 74.429916 0.0 0.0 0.0 1 0
  17 0.000004 2.571942 75.852417 0.0 0.0 0.0 1 0
phy.bmp
  17 0.000004 4.233887 74.429916 0.0 0.0 0.0 1 0
  17 1.754303 2.081483 75.852417 0.0 0.0 0.0 1 0
  17 0.000004 2.571942 75.852417 0.0 0.0 0.0 1 0
phy.bmp
  17 -2.448555 0.950010 67.156906 0.0 0.0 0.0 1 0
  17 -3.458491 0.500446 68.736473 0.0 0.0 0.0 1 0
  17 -1.754317 -1.968505 66.320648 0.0 0.0 0.0 1 0
phy.bmp
  17 -1.755094 2.959322 67.732643 0.0 0.0 0.0 1 0
  17 -2.448555 0.950010 67.156906 0.0 0.0 0.0 1 0
  17 -1.754317 -1.968505 66.320648 0.0 0.0 0.0 1 0
phy.bmp
  17 -2.448555 0.950010 67.156906 0.0 0.0 0.0 1 0
  17 -1.755094 2.959322 67.732643 0.0 0.0 0.0 1 0
  17 -3.458491 0.500446 68.736473 0.0 0.0 0.0 1 0
phy.bmp
  17 -2.650444 -4.048834 70.493301 0.0 0.0 0.0 1 0
  17 -0.000000 -4.133773 67.600861 0.0 0.0 0.0 1 0
  17 -2.267229 -3.017561 67.925888 0.0 0.0 0.0 1 0
phy.bmp
  17 -0.002624 -3.110689 65.993370 0.0 0.0 0.0 1 0
  17 -2.267229 -3.017561 67.925888 0.0 0.0 0.0 1 0
  17 -0.000000 -4.133773 67.600861 0.0 0.0 0.0 1 0
phy.bmp
  17 -0.002624 -3.110689 65.993370 0.0 0.0 0.0 1 0
  17 -1.754317 -1.968505 66.320648 0.0 0.0 0.0 1 0
  17 -2.267229 -3.017561 67.925888 0.0 0.0 0.0 1 0
phy.bmp
  17 -2.267229 -3.017561 67.925888 0.0 0.0 0.0 1 0
  17 -3.458491 0.500446 68.736473 0.0 0.0 0.0 1 0
  17 -4.181541 0.051611 71.422234 0.0 0.0 0.0 1 0
phy.bmp
  17 -4.181541 0.051611 71.422234 0.0 0.0 0.0 1 0
  17 -2.650444 -4.048834 70.493301 0.0 0.0 0.0 1 0
  17 -2.267229 -3.017561 67.925888 0.0 0.0 0.0 1 0
phy.bmp
  17 -1.754317 -1.968505 66.320648 0.0 0.0 0.0 1 0
  17 -3.458491 0.500446 68.736473 0.0 0.0 0.0 1 0
  17 -2.267229 -3.017561 67.925888 0.0 0.0 0.0 1 0
phy.bmp
  17 -2.310910 3.428476 74.429810 0.0 0.0 0.0 1 0
  17 0.000004 4.233887 74.429916 0.0 0.0 0.0 1 0
  17 -1.754306 2.081478 75.852417 0.0 0.0 0.0 1 0
phy.bmp
  17 -1.754306 2.081478 75.852417 0.0 0.0 0.0 1 0
  17 -3.638092 -0.009641 74.429558 0.0 0.0 0.0 1 0
  17 -2.310910 3.428476 74.429810 0.0 0.0 0.0 1 0
phy.bmp
  17 -2.451182 -0.009671 75.852417 0.0 0.0 0.0 1 0
  17 -3.638092 -0.009641 74.429558 0.0 0.0 0.0 1 0
  17 -1.754306 2.081478 75.852417 0.0 0.0 0.0 1 0
phy.bmp
  17 1.754319 -1.360153 75.852417 0.0 0.0 0.0 1 0
  17 0.000000 -2.547585 75.852417 0.0 0.0 0.0 1 0
  17 -1.754320 -1.360153 75.852417 0.0 0.0 0.0 1 0
phy.bmp
  17 2.310914 -2.797451 74.429321 0.0 0.0 0.0 1 0
  17 1.754319 -1.360153 75.852417 0.0 0.0 0.0 1 0
  17 2.451206 -0.009644 75.852417 0.0 0.0 0.0 1 0
phy.bmp
  17 2.310914 -2.797451 74.429321 0.0 0.0 0.0 1 0
  17 0.000000 -2.547585 75.852417 0.0 0.0 0.0 1 0
  17 1.754319 -1.360153 75.852417 0.0 0.0 0.0 1 0
phy.bmp
  17 -1.755094 2.959322 67.732643 0.0 0.0 0.0 1 0
  17 -1.754317 -1.968505 66.320648 0.0 0.0 0.0 1 0
  17 1.754318 -1.968505 66.320648 0.0 0.0 0.0 1 0
phy.bmp
  17 -0.002624 -3.110689 65.993370 0.0 0.0 0.0 1 0
  17 1.754318 -1.968505 66.320648 0.0 0.0 0.0 1 0
  17 -1.754317 -1.968505 66.320648 0.0 0.0 0.0 1 0
phy.bmp
  17 -3.458491 0.500446 68.736473 0.0 0.0 0.0 1 0
  17 -2.856929 3.748632 72.172485 0.0 0.0 0.0 1 0
  17 -4.181541 0.051611 71.422234 0.0 0.0 0.0 1 0
phy.bmp
  17 -4.181541 0.051611 71.422234 0.0 0.0 0.0 1 0
  17 -2.856929 3.748632 72.172485 0.0 0.0 0.0 1 0
  17 -3.638092 -0.009641 74.429558 0.0 0.0 0.0 1 0
phy.bmp
  17 -3.638092 -0.009641 74.429558 0.0 0.0 0.0 1 0
  17 -2.650444 -4.048834 70.493301 0.0 0.0 0.0 1 0
  17 -4.181541 0.051611 71.422234 0.0 0.0 0.0 1 0
phy.bmp
  17 -0.000004 4.582219 69.898621 0.0 0.0 0.0 1 0
  17 1.754096 2.959591 67.732719 0.0 0.0 0.0 1 0
  17 2.267229 3.807172 69.677872 0.0 0.0 0.0 1 0
phy.bmp
  17 -0.000001 3.431729 67.868004 0.0 0.0 0.0 1 0
  17 1.754096 2.959591 67.732719 0.0 0.0 0.0 1 0
  17 -0.000004 4.582219 69.898621 0.0 0.0 0.0 1 0
phy.bmp
  17 2.267229 3.807172 69.677872 0.0 0.0 0.0 1 0
  17 2.856930 3.748631 72.172493 0.0 0.0 0.0 1 0
  17 -0.000004 4.582219 69.898621 0.0 0.0 0.0 1 0
phy.bmp
  17 2.856930 3.748631 72.172493 0.0 0.0 0.0 1 0
  17 0.000001 4.614970 72.348312 0.0 0.0 0.0 1 0
  17 -0.000004 4.582219 69.898621 0.0 0.0 0.0 1 0
phy.bmp
  17 -0.000004 4.582219 69.898621 0.0 0.0 0.0 1 0
  17 -1.755094 2.959322 67.732643 0.0 0.0 0.0 1 0
  17 -0.000001 3.431729 67.868004 0.0 0.0 0.0 1 0
phy.bmp
  17 -2.267229 3.807172 69.677864 0.0 0.0 0.0 1 0
  17 -1.755094 2.959322 67.732643 0.0 0.0 0.0 1 0
  17 -0.000004 4.582219 69.898621 0.0 0.0 0.0 1 0
phy.bmp
  17 0.000001 4.614970 72.348312 0.0 0.0 0.0 1 0
  17 -2.856929 3.748632 72.172485 0.0 0.0 0.0 1 0
  17 -0.000004 4.582219 69.898621 0.0 0.0 0.0 1 0
phy.bmp
  17 -0.000004 4.582219 69.898621 0.0 0.0 0.0 1 0
  17 -2.856929 3.748632 72.172485 0.0 0.0 0.0 1 0
  17 -2.267229 3.807172 69.677864 0.0 0.0 0.0 1 0
phy.bmp
  17 3.458491 0.500446 68.736473 0.0 0.0 0.0 1 0
  17 2.856930 3.748631 72.172493 0.0 0.0 0.0 1 0
  17 2.267229 3.807172 69.677872 0.0 0.0 0.0 1 0
phy.bmp
  17 1.754096 2.959591 67.732719 0.0 0.0 0.0 1 0
  17 3.458491 0.500446 68.736473 0.0 0.0 0.0 1 0
  17 2.267229 3.807172 69.677872 0.0 0.0 0.0 1 0
phy.bmp
  17 1.754096 2.959591 67.732719 0.0 0.0 0.0 1 0
  17 -1.755094 2.959322 67.732643 0.0 0.0 0.0 1 0
  17 1.754318 -1.968505 66.320648 0.0 0.0 0.0 1 0
phy.bmp
  17 1.754096 2.959591 67.732719 0.0 0.0 0.0 1 0
  17 1.754318 -1.968505 66.320648 0.0 0.0 0.0 1 0
  17 2.448556 0.950010 67.156906 0.0 0.0 0.0 1 0
phy.bmp
  17 -0.002624 -3.110689 65.993370 0.0 0.0 0.0 1 0
  17 2.267228 -3.017563 67.925896 0.0 0.0 0.0 1 0
  17 1.754318 -1.968505 66.320648 0.0 0.0 0.0 1 0
phy.bmp
  17 3.458491 0.500446 68.736473 0.0 0.0 0.0 1 0
  17 1.754318 -1.968505 66.320648 0.0 0.0 0.0 1 0
  17 2.267228 -3.017563 67.925896 0.0 0.0 0.0 1 0
phy.bmp
  17 2.448556 0.950010 67.156906 0.0 0.0 0.0 1 0
  17 1.754318 -1.968505 66.320648 0.0 0.0 0.0 1 0
  17 3.458491 0.500446 68.736473 0.0 0.0 0.0 1 0
phy.bmp
  17 2.310910 3.428477 74.429810 0.0 0.0 0.0 1 0
  17 2.856930 3.748631 72.172493 0.0 0.0 0.0 1 0
  17 3.638084 -0.009660 74.429550 0.0 0.0 0.0 1 0
phy.bmp
  17 4.181545 0.051612 71.422249 0.0 0.0 0.0 1 0
  17 3.638084 -0.009660 74.429550 0.0 0.0 0.0 1 0
  17 2.856930 3.748631 72.172493 0.0 0.0 0.0 1 0
phy.bmp
  17 4.181545 0.051612 71.422249 0.0 0.0 0.0 1 0
  17 2.856930 3.748631 72.172493 0.0 0.0 0.0 1 0
  17 3.458491 0.500446 68.736473 0.0 0.0 0.0 1 0
phy.bmp
  17 0.000004 4.233887 74.429916 0.0 0.0 0.0 1 0
  17 0.000001 4.614970 72.348312 0.0 0.0 0.0 1 0
  17 2.856930 3.748631 72.172493 0.0 0.0 0.0 1 0
phy.bmp
  17 2.856930 3.748631 72.172493 0.0 0.0 0.0 1 0
  17 2.310910 3.428477 74.429810 0.0 0.0 0.0 1 0
  17 0.000004 4.233887 74.429916 0.0 0.0 0.0 1 0
phy.bmp
  17 -2.310912 -2.797429 74.429382 0.0 0.0 0.0 1 0
  17 -2.451182 -0.009671 75.852417 0.0 0.0 0.0 1 0
  17 -1.754320 -1.360153 75.852417 0.0 0.0 0.0 1 0
phy.bmp
  17 -1.754320 -1.360153 75.852417 0.0 0.0 0.0 1 0
  17 0.000000 -2.547585 75.852417 0.0 0.0 0.0 1 0
  17 -2.310912 -2.797429 74.429382 0.0 0.0 0.0 1 0
phy.bmp
  17 -2.310910 3.428476 74.429810 0.0 0.0 0.0 1 0
  17 -2.856929 3.748632 72.172485 0.0 0.0 0.0 1 0
  17 0.000004 4.233887 74.429916 0.0 0.0 0.0 1 0
phy.bmp
  17 -3.638092 -0.009641 74.429558 0.0 0.0 0.0 1 0
  17 -2.856929 3.748632 72.172485 0.0 0.0 0.0 1 0
  17 -2.310910 3.428476 74.429810 0.0 0.0 0.0 1 0
phy.bmp
  17 2.310910 3.428477 74.429810 0.0 0.0 0.0 1 0
  17 1.754303 2.081483 75.852417 0.0 0.0 0.0 1 0
  17 0.000004 4.233887 74.429916 0.0 0.0 0.0 1 0
phy.bmp
  17 0.000004 4.233887 74.429916 0.0 0.0 0.0 1 0
  17 -2.856929 3.748632 72.172485 0.0 0.0 0.0 1 0
  17 0.000001 4.614970 72.348312 0.0 0.0 0.0 1 0
phy.bmp
  17 2.310914 -2.797451 74.429321 0.0 0.0 0.0 1 0
  17 2.451206 -0.009644 75.852417 0.0 0.0 0.0 1 0
  17 3.638084 -0.009660 74.429550 0.0 0.0 0.0 1 0
phy.bmp
  17 1.754303 2.081483 75.852417 0.0 0.0 0.0 1 0
  17 3.638084 -0.009660 74.429550 0.0 0.0 0.0 1 0
  17 2.451206 -0.009644 75.852417 0.0 0.0 0.0 1 0
phy.bmp
  17 -2.267229 3.807172 69.677864 0.0 0.0 0.0 1 0
  17 -2.856929 3.748632 72.172485 0.0 0.0 0.0 1 0
  17 -3.458491 0.500446 68.736473 0.0 0.0 0.0 1 0
phy.bmp
  17 -3.458491 0.500446 68.736473 0.0 0.0 0.0 1 0
  17 -1.755094 2.959322 67.732643 0.0 0.0 0.0 1 0
  17 -2.267229 3.807172 69.677864 0.0 0.0 0.0 1 0
phy.bmp
  17 1.754096 2.959591 67.732719 0.0 0.0 0.0 1 0
  17 -0.000001 3.431729 67.868004 0.0 0.0 0.0 1 0
  17 -1.755094 2.959322 67.732643 0.0 0.0 0.0 1 0
phy.bmp
  17 2.650445 -4.048835 70.493301 0.0 0.0 0.0 1 0
  17 2.267228 -3.017563 67.925896 0.0 0.0 0.0 1 0
  17 -0.000000 -4.133773 67.600861 0.0 0.0 0.0 1 0
phy.bmp
  17 -0.002624 -3.110689 65.993370 0.0 0.0 0.0 1 0
  17 -0.000000 -4.133773 67.600861 0.0 0.0 0.0 1 0
  17 2.267228 -3.017563 67.925896 0.0 0.0 0.0 1 0
phy.bmp
  17 4.181545 0.051612 71.422249 0.0 0.0 0.0 1 0
  17 3.458491 0.500446 68.736473 0.0 0.0 0.0 1 0
  17 2.267228 -3.017563 67.925896 0.0 0.0 0.0 1 0
phy.bmp
  17 4.181545 0.051612 71.422249 0.0 0.0 0.0 1 0
  17 2.267228 -3.017563 67.925896 0.0 0.0 0.0 1 0
  17 2.650445 -4.048835 70.493301 0.0 0.0 0.0 1 0
phy.bmp
  17 2.650445 -4.048835 70.493301 0.0 0.0 0.0 1 0
  17 0.000002 -4.990101 70.234184 0.0 0.0 0.0 1 0
  17 -0.000000 -3.984928 74.429329 0.0 0.0 0.0 1 0
phy.bmp
  17 2.650445 -4.048835 70.493301 0.0 0.0 0.0 1 0
  17 -0.000000 -4.133773 67.600861 0.0 0.0 0.0 1 0
  17 0.000002 -4.990101 70.234184 0.0 0.0 0.0 1 0
phy.bmp
  17 -2.650444 -4.048834 70.493301 0.0 0.0 0.0 1 0
  17 -0.000000 -3.984928 74.429329 0.0 0.0 0.0 1 0
  17 0.000002 -4.990101 70.234184 0.0 0.0 0.0 1 0
phy.bmp
  17 -2.650444 -4.048834 70.493301 0.0 0.0 0.0 1 0
  17 0.000002 -4.990101 70.234184 0.0 0.0 0.0 1 0
  17 -0.000000 -4.133773 67.600861 0.0 0.0 0.0 1 0
phy.bmp
  17 -2.310912 -2.797429 74.429382 0.0 0.0 0.0 1 0
  17 0.000000 -2.547585 75.852417 0.0 0.0 0.0 1 0
  17 -0.000000 -3.984928 74.429329 0.0 0.0 0.0 1 0
phy.bmp
  17 -2.310912 -2.797429 74.429382 0.0 0.0 0.0 1 0
  17 -3.638092 -0.009641 74.429558 0.0 0.0 0.0 1 0
  17 -2.451182 -0.009671 75.852417 0.0 0.0 0.0 1 0
phy.bmp
  17 -2.650444 -4.048834 70.493301 0.0 0.0 0.0 1 0
  17 -2.310912 -2.797429 74.429382 0.0 0.0 0.0 1 0
  17 -0.000000 -3.984928 74.429329 0.0 0.0 0.0 1 0
phy.bmp
  17 -2.310912 -2.797429 74.429382 0.0 0.0 0.0 1 0
  17 -2.650444 -4.048834 70.493301 0.0 0.0 0.0 1 0
  17 -3.638092 -0.009641 74.429558 0.0 0.0 0.0 1 0
phy.bmp
  17 2.650445 -4.048835 70.493301 0.0 0.0 0.0 1 0
  17 2.310914 -2.797451 74.429321 0.0 0.0 0.0 1 0
  17 3.638084 -0.009660 74.429550 0.0 0.0 0.0 1 0
phy.bmp
  17 4.181545 0.051612 71.422249 0.0 0.0 0.0 1 0
  17 2.650445 -4.048835 70.493301 0.0 0.0 0.0 1 0
  17 3.638084 -0.009660 74.429550 0.0 0.0 0.0 1 0
phy.bmp
  17 1.754303 2.081483 75.852417 0.0 0.0 0.0 1 0
  17 2.310910 3.428477 74.429810 0.0 0.0 0.0 1 0
  17 3.638084 -0.009660 74.429550 0.0 0.0 0.0 1 0
phy.bmp
  17 1.754096 2.959591 67.732719 0.0 0.0 0.0 1 0
  17 2.448556 0.950010 67.156906 0.0 0.0 0.0 1 0
  17 3.458491 0.500446 68.736473 0.0 0.0 0.0 1 0
phy.bmp
  17 2.650445 -4.048835 70.493301 0.0 0.0 0.0 1 0
  17 -0.000000 -3.984928 74.429329 0.0 0.0 0.0 1 0
  17 2.310914 -2.797451 74.429321 0.0 0.0 0.0 1 0
phy.bmp
  17 -0.000000 -3.984928 74.429329 0.0 0.0 0.0 1 0
  17 0.000000 -2.547585 75.852417 0.0 0.0 0.0 1 0
  17 2.310914 -2.797451 74.429321 0.0 0.0 0.0 1 0
end
